<svg xmlns="http://www.w3.org/2000/svg" viewBox="128 128 768 768" role="img" aria-labelledby="brand-logo-title">
<title id="brand-logo-title">TjuaeUI</title>
<defs>
<clipPath id="brand-logo-circle">
<circle cx="512" cy="512" r="384"/>
</clipPath>
</defs>
<g clip-path="url(#brand-logo-circle)">
<path fill="#fefdfd" d="M182.817-.131c1.16 0 2.31 0 3.5-.01h9.59c3.48 0 6.97 0 10.45-.01 6.9-.01 13.8-.01 20.7-.01 8.27 0 16.54-.01 24.81-.01 19.98-.02 39.96-.02 59.95-.03 9.46 0 18.92-.01 28.38-.01l97.2-.03h27.55c32.85 0 65.7-.02 98.55-.04 34.75-.03 69.51-.04 104.26-.04h14.31q22.65 0 45.3-.03c15.2-.01 30.39-.02 45.59-.01 9.01.01 18.02 0 27.04-.01 6.03-.01 12.07-.01 18.11 0 3.43 0 6.85 0 10.28-.01 42.85-.13 83.47 8.61 118.61 34.38.54.4 1.08.79 1.64 1.2 6.01 4.43 11.81 8.92 16.96 14.36 1.4 1.44 1.4 1.44 3.9 3.38 3.62 2.98 6.49 6.48 9.5 10.06.69.81 1.39 1.61 2.1 2.44 27.7 32.83 43.11 74.42 43.03 117.38.01.58.01.58.01 3.5.01 3.2.01 6.39 0 9.59 0 3.48.01 6.96.01 10.45.01 6.9.01 13.8.01 20.7 0 8.27.01 16.54.02 24.81.01 19.98.02 39.96.02 59.95.01 9.46.01 18.92.01 28.38q.03 48.6.03 97.2v27.55c.01 32.85.02 65.7.05 98.55.02 34.75.03 69.51.04 104.26v14.31c0 15.1.01 30.2.02 45.3.02 15.2.02 30.39.01 45.58 0 9.02 0 18.03.02 27.04q.015 9.06 0 18.12c-.01 3.42-.01 6.85 0 10.28.13 42.86-8.62 83.45-34.38 118.61-.75 1.04-1.51 2.08-2.29 3.15-4.33 5.84-8.93 11.37-13.83 16.73-.24.25-.24.25-1.42 1.55-13.74 14.71-30.76 26.19-48.46 35.57-.7.38-1.41.75-2.14 1.14-24.82 12.95-52.77 19.04-80.67 18.99-1.16 0-2.32.01-3.51.01h-9.59c-3.48 0-6.96.01-10.44.01-6.9.01-13.8.01-20.7.01-8.27 0-16.54.01-24.81.02-19.99.01-39.97.02-59.95.02-9.46 0-18.92.01-28.38.01-32.4.01-64.8.03-97.2.03h-27.55c-32.85.01-65.7.02-98.55.04-34.76.03-69.51.04-104.27.04h-11.46c-.47.01-.47.01-2.85.01-15.1 0-30.2.01-45.3.02-15.19.02-30.39.02-45.58.01-9.01 0-18.03 0-27.04.02-6.04.01-12.07.01-18.11 0q-5.145-.015-10.29 0c-42.84.13-83.47-8.61-118.61-34.38-.54-.39-1.08-.79-1.64-1.2-6.01-4.43-11.8-8.92-16.95-14.36-1.41-1.44-1.41-1.44-3.91-3.38-3.61-2.98-6.49-6.47-9.5-10.06-.69-.8-1.38-1.61-2.09-2.44-27.71-32.83-43.11-74.42-43.04-117.38v-3.5c-.01-3.2-.01-6.39-.01-9.59 0-3.48 0-6.96-.01-10.44 0-6.9-.01-13.81-.01-20.71 0-8.26 0-16.53-.01-24.8-.02-19.99-.02-39.97-.03-59.95 0-9.46 0-18.92-.01-28.38-.01-32.4-.02-64.8-.02-97.2-.01-2.04-.01-4.07-.01-6.1v-21.45c0-32.85-.02-65.7-.04-98.55-.03-34.76-.04-69.52-.04-104.27v-14.31q0-22.65-.03-45.3c-.01-15.19-.02-30.39-.01-45.58.01-9.01 0-18.03-.01-27.04-.01-6.04-.01-12.08 0-18.11 0-3.43 0-6.86-.01-10.29-.15-50.04 12.91-97.27 47.46-134.87 1.61-1.62 3.25-3.19 4.92-4.74.81-.8 1.61-1.61 2.44-2.44.85-.84 1.69-1.69 2.56-2.56.51-.55 1.01-1.1 1.53-1.66 30.9-32.8 80.1-49.54 124.29-49.47"/>
<path fill="#fbfcfd" d="M510.966 128.794c2.93.02 5.86.02 8.78.02 17.57.03 34.24 1.62 51.5 4.81.98.18 1.95.36 2.95.54 21.55 3.97 42.41 9.02 62.84 17.07 1.74.68 3.49 1.32 5.25 1.97 30.61 11.24 59.04 27.76 84.71 47.8.42.32.42.32 2.5 1.94 9.26 7.32 18.47 14.75 26.68 23.24 1.85 1.84 3.77 3.51 5.76 5.19 3.92 3.38 7.32 7.1 10.73 10.98 1.53 1.74 3.09 3.45 4.67 5.13 16.63 17.73 30.73 38.38 42.66 59.52.52.91 1.04 1.82 1.57 2.76 21.76 38.6 37.76 81.38 44.03 125.4.27 1.88.55 3.76.85 5.64 7.86 49.58 4 104.44-11.45 152.2-.35 1.22-.7 2.43-1.07 3.69-3.75 12.78-8.85 25.01-13.93 37.31-.31.76-.62 1.53-.94 2.33-13.09 32.2-33.07 61.75-56.06 87.67-1.16 1.35-2.33 2.7-3.5 4.06-1.16 1.31-2.33 2.63-3.5 3.94-.83.93-1.66 1.87-2.52 2.84-11.17 12.41-23.32 23.87-36.48 34.16-.93.75-1.86 1.5-2.82 2.27-29.08 23.01-61.65 40.47-96.18 53.73-1 .38-2 .77-3.03 1.17-19.39 7.45-38.92 12.2-59.26 16.28-2.37.48-4.74.96-7.11 1.46-5.75 1.18-11.46 2.21-17.28 2.96-13.41 2.01-25.51 8.83-34.32 19.13-.77 1.15-1.52 2.31-2.25 3.5-.57.82-1.15 1.65-1.75 2.5-3.68-1.23-4.31-2.53-6.56-5.63-10.89-13.9-27.7-18.85-44.57-21.29-18.69-2.71-36.99-7.56-55.12-12.77-.47-.14-.47-.14-2.89-.83-5.14-1.52-9.96-3.32-14.82-5.57-2.8-1.26-5.68-2.21-8.6-3.16-6.89-2.41-13.27-5.53-19.74-8.89-2.34-1.2-4.65-2.27-7.07-3.31-29.9-12.84-57.66-32.69-81.63-54.55-.67-.62-1.35-1.24-2.05-1.87-13.97-12.76-27.36-26.15-38.95-41.13-.44-.58-.88-1.15-1.34-1.74-21.87-28.26-42.03-60.28-53.57-94.27-1.07-3.17-2.18-6.22-3.55-9.28-2.16-4.92-3.48-10.11-4.91-15.28-.31-1.1-.61-2.2-.92-3.33-8.87-32.45-13.14-64.22-13.08-97.85v-3.67c.07-30.16 4.03-58.38 11.37-87.58.23-.9.45-1.8.68-2.73 12.02-47.84 35.39-93.9 66.32-132.27.74-.93 1.47-1.86 2.23-2.81 8.62-10.74 18.07-20.59 27.75-30.35 1-1 2-2.01 2.99-3.02 6.66-6.74 13.6-12.93 21.03-18.82 1.25-1.03 2.49-2.06 3.73-3.09 13.25-10.88 27.58-20.1 42.27-28.91.44-.28.44-.28 2.66-1.66 36.17-22.04 80.21-37.45 122.21-42.91 2.78-.39 5.5-.88 8.26-1.43 15.17-2.79 30.46-3.31 45.84-3.21"/>
<path fill="#063b9c" d="M510.966 128.794c2.93.02 5.86.02 8.78.02 17.57.03 34.24 1.62 51.5 4.81.98.18 1.95.36 2.95.54 21.55 3.97 42.41 9.02 62.84 17.07 1.74.68 3.49 1.32 5.25 1.97 30.61 11.24 59.04 27.76 84.71 47.8.42.32.42.32 2.5 1.94 9.26 7.32 18.47 14.75 26.68 23.24 1.85 1.84 3.77 3.51 5.76 5.19 3.92 3.38 7.32 7.1 10.73 10.98 1.53 1.74 3.09 3.45 4.67 5.13 16.63 17.73 30.73 38.38 42.66 59.52.52.91 1.04 1.82 1.57 2.76 21.76 38.6 37.76 81.38 44.03 125.4.27 1.88.55 3.76.85 5.64 7.86 49.58 4 104.44-11.45 152.2-.35 1.22-.7 2.43-1.07 3.69-3.75 12.78-8.85 25.01-13.93 37.31-.31.76-.62 1.53-.94 2.33-13.09 32.2-33.07 61.75-56.06 87.67-1.16 1.35-2.33 2.7-3.5 4.06-1.16 1.31-2.33 2.63-3.5 3.94-.83.93-1.66 1.87-2.52 2.84-11.17 12.41-23.32 23.87-36.48 34.16-.93.75-1.86 1.5-2.82 2.27-29.08 23.01-61.65 40.47-96.18 53.73-1 .38-2 .77-3.03 1.17-19.39 7.45-38.92 12.2-59.26 16.28-2.37.48-4.74.96-7.11 1.46-5.75 1.18-11.46 2.21-17.28 2.96-13.41 2.01-25.51 8.83-34.32 19.13-.77 1.15-1.52 2.31-2.25 3.5-.57.82-1.15 1.65-1.75 2.5-3.68-1.23-4.31-2.53-6.56-5.63-10.89-13.9-27.7-18.85-44.57-21.29-18.69-2.71-36.99-7.56-55.12-12.77-.47-.14-.47-.14-2.89-.83-5.14-1.52-9.96-3.32-14.82-5.57-2.8-1.26-5.68-2.21-8.6-3.16-6.89-2.41-13.27-5.53-19.74-8.89-2.34-1.2-4.65-2.27-7.07-3.31-29.9-12.84-57.66-32.69-81.63-54.55-.67-.62-1.35-1.24-2.05-1.87-13.97-12.76-27.36-26.15-38.95-41.13-.44-.58-.88-1.15-1.34-1.74-21.87-28.26-42.03-60.28-53.57-94.27-1.07-3.17-2.18-6.22-3.55-9.28-2.16-4.92-3.48-10.11-4.91-15.28-.31-1.1-.61-2.2-.92-3.33-8.87-32.45-13.14-64.22-13.08-97.85v-3.67c.07-30.16 4.03-58.38 11.37-87.58.23-.9.45-1.8.68-2.73 12.02-47.84 35.39-93.9 66.32-132.27.74-.93 1.47-1.86 2.23-2.81 8.62-10.74 18.07-20.59 27.75-30.35 1-1 2-2.01 2.99-3.02 6.66-6.74 13.6-12.93 21.03-18.82 1.25-1.03 2.49-2.06 3.73-3.09 13.25-10.88 27.58-20.1 42.27-28.91.44-.28.44-.28 2.66-1.66 36.17-22.04 80.21-37.45 122.21-42.91 2.78-.39 5.5-.88 8.26-1.43 15.17-2.79 30.46-3.31 45.84-3.21m-36.97 21.21c-.98.12-1.97.24-2.98.36-23.35 2.88-47.1 7.43-69.11 15.9-1.84.71-3.7 1.39-5.55 2.06-26.18 9.58-51.23 22.09-74.36 37.68-.62.42-1.25.84-1.9 1.28-13.51 9.19-26.08 19.66-38.1 30.72-1.64 1.45-3.29 2.91-4.93 4.37-8.24 7.43-15.92 15.15-22.83 23.83-2.29 2.86-4.66 5.64-7.05 8.42-27.04 32.51-49.27 73.45-60.61 114.29-.67 2.42-1.36 4.83-2.06 7.24-3.21 11.29-6.01 22.59-8.03 34.15-.33 1.81-.67 3.61-1.04 5.41-3.59 17.6-3.85 35.06-3.88 52.97-.01 1.16-.02 2.33-.02 3.52-.06 16.48 1.15 32.48 3.45 48.8q.495 3.615.96 7.23c9.6 68.52 46.43 131.68 94.04 180.77.53.54 1.06 1.09 1.61 1.65 5.57 5.72 11.26 11.24 17.39 16.35.53.44 1.05.88 1.58 1.33 25.08 21.13 53.16 38.91 83.42 51.67.32.13.32.13 1.92.81 25.68 10.8 51.66 18.36 79.08 23.19.76.14 1.51.29 2.28.44 2.03.36 2.03.36 4.72.56-1.78-3.39-6.28-4.79-9.62-6.32-.66-.3-1.32-.61-2-.92-6.21-2.8-12.56-5.04-19-7.24-6.75-2.32-13.37-4.96-20-7.59-2.48-.97-4.95-1.94-7.43-2.91-17.9-7.03-34.94-15.37-51.9-24.43-3.79-1.98-7.64-3.82-11.52-5.62-2.55-1.4-4.6-2.79-6.53-4.97 20.32-9.12 62.71 5.78 82 13 .79.28 1.57.56 2.37.86 24.39 8.93 45.83 21.13 64.63 39.14l2.79 2.55c9.86 9.27 17.72 20.21 25.21 31.45 4.05-1.35 4.8-3.34 7.13-6.88 20.44-30.34 50.44-52.88 84.87-65.12 1.22-.47 2.43-.95 3.68-1.43 19.94-7.62 41.01-11.57 62.23-13.31 2.13-.18 4.25-.38 6.36-.61 1.06-.1 2.12-.21 3.21-.32.95-.1 1.89-.2 2.86-.31 3.07-.1 5.72.08 8.66.98-5.05 6.42-16.67 10.23-24 14-1.18.61-2.37 1.22-3.55 1.84-29.2 15.04-29.2 15.04-42.57 19.91-.64.23-1.28.47-1.94.71-3.31 1.22-6.63 2.42-9.95 3.63-12.13 4.41-24.23 8.86-36.11 13.91-.45.18-.45.18-2.69 1.13-.81.35-1.61.69-2.44 1.05-.71.31-1.41.61-2.13.92-1.62.9-1.62.9-2.62 2.9 3.16-.24 6.19-.6 9.32-1.07.95-.14 1.91-.28 2.89-.42 8.45-1.32 16.5-3.46 24.67-5.9 3.41-.99 6.86-1.79 10.31-2.61 10.13-2.47 20.13-5.53 29.58-9.99 2.22-1.01 4.47-1.91 6.75-2.79 17.7-7.04 34.44-16.01 50.48-26.22 1.11-.7 2.21-1.4 3.34-2.11 26.65-17.31 52.84-39.2 72.56-64.23 2.28-2.89 4.66-5.68 7.04-8.48 26.38-31.74 46.42-70.67 58.06-110.18.27-.9.54-1.79.82-2.71 4.25-14.3 7.89-28.55 10.18-43.29.08-.45.08-.45.46-2.7 5.09-31.26 4.46-64.98.73-96.37-.08-.7-.16-1.4-.25-2.12-.89-7.33-2.16-14.4-4.26-21.48-.67-2.33-1.17-4.64-1.61-7.02-2.61-13.47-6.52-26.39-11.07-39.31-.13-.39-.13-.39-.8-2.33-14.68-41.98-37.38-80.66-67.2-113.67-.47-.54-.95-1.07-1.44-1.62-9.37-10.48-18.96-20.56-29.99-29.32-2.34-1.88-4.55-3.84-6.75-5.88-27.39-24.51-62.28-43.17-96.82-55.18-2.04-.76-4.08-1.53-6.11-2.3-6.51-2.43-13.14-4.39-19.82-6.27-.74-.21-1.48-.42-2.24-.63-5.57-1.55-11.15-2.74-16.83-3.8-1.04-.2-2.08-.39-3.15-.6-23.06-4.26-45.17-6.56-68.6-6.65-.86-.01-1.73-.02-2.62-.02-12.02-.06-23.71.7-35.63 2.27"/>
<path fill="#043ea0" d="M726.188 389.75c1.04-.01 2.08-.01 3.14-.02 2.95-.01 5.89 0 8.84 0 .91 0 1.81 0 2.75-.01 2.03.02 4.06.13 6.08.28l-1 2c-2.51.55-4.96.99-7.5 1.37-46.52 7.73-92.03 29.17-129.5 57.63-.56.43-1.13.86-1.71 1.3-20.32 15.5-39.22 32.66-56.29 51.7-.5.56-1.01 1.12-1.53 1.7-36.06 40.25-66.32 91.79-79.9 144.3-.33 1.26-.66 2.52-1 3.83-2.87 11.47-4.98 23.18-4.88 35.04 0 .75.01 1.49.01 2.26.47 23.7 9.77 45.45 24.16 64.09 1.14 1.78 1.14 1.78 1.14 4.78-2.2-2.02-4.25-4.08-6.31-6.25-5.92-6.06-11.94-11.61-18.69-16.75-.66-.52-1.33-1.03-2.02-1.56a266 266 0 0 0-35.98-23.44c-.76-.42-1.52-.83-2.31-1.26-13.08-7.13-26.12-13.13-40.31-17.8-.66-.22-1.31-.44-1.99-.66-9.08-3.02-18.16-5.69-27.53-7.66-2.86-.62-2.86-.62-4.86-1.62-2.31-.37-4.62-.69-6.93-1-6.74-.89-6.74-.89-10.07-2 1.86-7.71 5.66-14.45 9.44-21.37.62-1.15 1.24-2.29 1.88-3.47 5.49-9.99 11.36-19.67 17.68-29.16l1.4-2.1c14.99-22.45 31.81-43.6 50.19-63.37 1.45-1.57 2.88-3.14 4.31-4.71 8.86-9.71 17.86-19.38 27.89-27.89 2.47-2.15 4.86-4.39 7.25-6.64 5.27-4.96 10.57-9.77 16.3-14.22 2.03-1.57 4.03-3.17 6.01-4.8 30.49-24.87 64.57-44.66 99.65-62.27 1.12-.56 2.23-1.12 3.37-1.7 16.85-8.45 33.97-15.75 51.63-22.3.5-.19.5-.19 3.03-1.14 17.89-6.66 36.25-11.74 54.96-15.55 2.01-.41 4.01-.86 6.01-1.31-14.81 1.48-29.42 4.03-44 7-.99.2-1.98.4-3 .6-15.96 3.2-31.57 6.74-46.97 12.06-3.36 1.14-6.74 2.18-10.13 3.21-6.9 2.11-13.74 4.35-20.59 6.63-.57.19-.57.19-3.47 1.14-5.85 1.95-11.63 4-17.34 6.34a585 585 0 0 1-8.22 3.25c-17.91 7.07-35.17 15.21-52.38 23.82-1.78.89-3.56 1.78-5.34 2.66-29.7 14.8-57.81 32.68-84.56 52.29-1.03.76-2.07 1.52-3.13 2.3-6.79 5.03-13.38 10.28-19.87 15.7-.52.44-1.04.87-1.58 1.32-6.41 5.36-12.73 10.79-18.91 16.41-1.35 1.23-2.71 2.44-4.1 3.62-6.38 5.43-12.25 11.35-18.16 17.27-1.81 1.81-3.62 3.62-5.43 5.42-5.82 5.82-11.51 11.66-16.82 17.96-.98 1.13-1.97 2.26-2.95 3.39-13.76 15.85-26.28 32.67-37.37 50.5-.87 1.38-1.77 2.75-2.68 4.11h-1c-.14-2.36-.21-4.69-.24-7.05-.01-.75-.02-1.5-.04-2.27-.12-7.87-.18-15.75-.23-23.62-.03-3.74-.08-7.47-.15-11.21-.08-4.5-.12-9.01-.14-13.52-.01-1.71-.03-3.43-.07-5.14-.3-13.47-.3-13.47 2.63-17.77 2-1.76 3.94-3.09 6.24-4.42 1.35-1.31 2.69-2.64 4-4 3.18-3.22 6.46-6.22 9.89-9.17 2.29-1.98 4.51-4.03 6.74-6.08 5.65-5.1 11.6-9.76 17.62-14.4 1.64-1.26 3.27-2.54 4.9-3.81 29.02-22.58 60.09-41.98 92.51-59.28 2.03-1.09 4.05-2.2 6.06-3.32 20.69-11.39 42.77-21.34 64.87-29.65 2.41-.91 4.81-1.84 7.2-2.8 9.58-3.83 19.27-7.31 29.02-10.68 1.21-.41 2.41-.83 3.65-1.26 12.17-4.17 24.39-7.87 36.85-11.05.6-.15.6-.15 3.6-.92 2.34-.6 4.68-1.2 7.01-1.79l7.44-1.92c33.5-8.58 67.27-14.29 101.64-17.87 1.09-.12 2.19-.24 3.31-.36 15.61-1.69 31.19-1.84 46.88-1.89"/>
<path fill="#073894" d="M512 196c3 1 3 1 4.14 2.68.37.72.73 1.45 1.1 2.2.21.42.21.42 1.27 2.51.23.45.23.45 1.37 2.73 4.04 7.95 8.25 15.77 12.68 23.5a718 718 0 0 1 12.71 23.26c3.11 5.97 6.31 11.9 9.54 17.81.5.91 1.01 1.83 1.52 2.78 1.03 1.88 2.07 3.77 3.1 5.65 7.84 14.36 15.59 28.76 23.33 43.16 7.17 13.32 14.36 26.63 21.62 39.9.54 1 1.09 2 1.65 3.03 1.03 1.89 2.07 3.77 3.1 5.66C616 383.43 616 383.43 616 386c-2.4.61-2.4.61-5.79 1.11-.62.1-.62.1-3.76.59l-2.02.3c-11.36 1.71-22.55 3.72-33.69 6.56-.82.21-1.65.41-2.49.62-.36.09-.36.09-2.14.55-2.76.35-4.48.25-7.11-.73-1.83-2.49-1.83-2.49-3.52-5.8l-.94-1.79c-.99-1.9-1.95-3.81-2.92-5.72q-1.425-2.79-2.88-5.58c-.63-1.23-1.27-2.47-1.9-3.7-2.61-5.05-5.45-9.95-8.34-14.84-1.76-3.01-3.31-6.05-4.81-9.19-3.13-6.36-6.5-12.56-9.98-18.73-2.01-3.56-3.98-7.13-5.8-10.79-.32-.62-.63-1.25-.95-1.89-.85-1.68-1.67-3.36-2.49-5.05q-.72-.945-1.47-1.92c-2.49 1.93-3.77 4.2-5.13 7-.39.79-.78 1.59-1.18 2.41-.21.43-.21.43-1.25 2.59-.9 1.83-1.8 3.65-2.7 5.48-.46.92-.92 1.85-1.39 2.8-5.97 11.99-12.4 23.75-18.89 35.46-2.89 5.25-5.63 10.56-8.3 15.94-4.77 9.61-9.78 19.1-14.87 28.55l-2.25 4.17-1.09 2.03c-1.94 3.61-3.77 7.23-5.49 10.95-3.88 8.2-7.79 12.35-16.37 15.52-1.38.48-2.76.94-4.14 1.4-2.91 1.04-5.59 2.45-8.33 3.89a91 91 0 0 1-9.97 4.49c-6.7 2.65-13.1 5.89-19.53 9.13-2.11 1.06-4.23 2.12-6.35 3.17-6.85 3.42-13.52 6.91-19.95 11.09-.3.15-.3.15-1.82.93l-2-1c1.05-2.51 1.05-2.51 2.89-5.9.33-.62.66-1.24 1-1.87 1.11-2.06 2.24-4.11 3.36-6.17.78-1.44 1.56-2.88 2.33-4.32l3.66-6.78c4.03-7.45 7.99-14.93 11.93-22.42 5.77-10.95 11.6-21.85 17.57-32.69 3.68-6.73 7.24-13.53 10.76-20.35 5.01-9.69 10.16-19.29 15.41-28.86 3.35-6.11 6.66-12.25 9.97-18.39.58-1.09 1.17-2.18 1.77-3.3 1.19-2.21 2.38-4.42 3.57-6.64 2.34-4.35 4.69-8.71 7.03-13.07 1.17-2.16 2.33-4.32 3.5-6.48 2.93-5.46 5.87-10.91 8.82-16.37 5.59-10.34 11.14-20.7 16.55-31.14 4.83-9.3 9.79-18.52 14.84-27.7 2.17-3.93 4.27-7.88 6.36-11.85.27-.52.27-.52 1.64-3.11 1.05-1.99 2.09-3.98 3.12-5.98.47-.88.94-1.76 1.42-2.67.21-.39.21-.39 1.25-2.38.41-.52.82-1.03 1.25-1.56"/>
<path fill="#0d3792" d="M512.688 158.75h2.9c14.01.01 27.63.55 41.49 2.79 3.21.51 6.42.94 9.64 1.37 10.96 1.52 21.46 3.29 31.92 6.94 3.36 1.15 3.36 1.15 6.92 1.99 6.28 1.52 12.31 3.85 18.38 6.03 1.22.44 2.45.87 3.71 1.32 6.58 2.36 13.01 4.86 19.35 7.81 1.42.63 2.84 1.27 4.26 1.9 24.56 11.2 46.93 25.98 67.74 43.1.47.38.47.38 2.85 2.33 7.63 6.31 14.78 12.98 21.75 20 1.66 1.68 3.33 3.34 5 5 6.58 6.57 12.67 13.34 18.4 20.67.53.66 1.05 1.32 1.59 2 22.41 28.39 40.11 61.04 52.41 95 .49 1.31.98 2.62 1.46 3.93 1.92 5.25 3.68 10.4 4.99 15.84.61 2.48 1.28 4.94 1.95 7.41 3.22 11.89 5.79 23.64 7.6 35.82.37 2.04.75 4.08 1.13 6.13 2.27 13.97 2.06 28.26 2.06 42.38 0 3.09.02 6.18.04 9.28.05 18.16-1.04 36.11-4.54 53.96-.22 1.13-.43 2.27-.66 3.44-1.71 8.75-3.81 17.32-6.43 25.84-.57 1.87-1.1 3.76-1.64 5.64-10.17 34.71-26.5 66.56-47.77 95.69-.99 1.37-1.95 2.76-2.91 4.15-.42.49-.84.98-1.28 1.49-2.92-.82-5.27-2.51-7-5 1.13-2.73 2.65-5.02 4.4-7.37 13.66-18.63 23.91-38.71 33.6-59.63.43-.89.85-1.78 1.28-2.69 5.55-11.84 9.45-24.13 12.79-36.75.08-.32.08-.32.51-1.95 2.25-8.52 4.27-17.05 5.8-25.74.14-.81.28-1.62.43-2.46.45-2.8.83-5.6 1.19-8.41.09-.67.17-1.33.26-2.02 1.77-14.33 2.1-28.55 2.05-42.98v-3.4c-.07-24.62-2.11-48.01-7.72-72.05-.51-2.23-1-4.45-1.48-6.68-8.28-36.22-24.89-72.46-46.11-102.87-.21-.31-.21-.31-1.31-1.9-5.27-7.6-10.77-14.98-16.69-22.1-.4-.5-.4-.5-2.46-3.02-12.05-14.59-25.51-28.45-40.54-39.98-1.12-.92-2.24-1.84-3.36-2.77-21.58-17.81-45.77-31.45-71.15-43.08-1.52-.7-3.03-1.42-4.54-2.16-7.11-3.39-14.66-5.51-22.18-7.77-2.37-.71-4.73-1.43-7.09-2.15-4.55-1.39-9.11-2.74-13.68-4.07-.66-.19-1.31-.39-1.99-.58-9.8-2.84-19.61-4.8-29.7-6.17-.78-.11-1.56-.22-2.37-.33-15.38-2.04-30.69-2.38-46.19-2.36h-3.33c-18.71.04-36.58 1.6-54.92 5.25-.33.07-.33.07-2.02.4-10.66 2.11-21.11 4.53-31.48 7.79-.78.24-1.56.48-2.37.72-41.44 12.62-83.01 34.35-114.63 64.28-1.3 1.15-2.62 2.3-3.93 3.44-14.82 12.95-14.82 12.95-20.34 19.52-1.93 2.28-3.95 4.47-5.98 6.67-9.11 10.12-17.24 21.02-24.75 32.37-.44.67-.89 1.33-1.34 2.02-24.6 37.05-44.42 81.65-49.3 126.24-.36 2.74-.36 2.74-1.36 4.74-1 3.08-1.78 5.8-1 9 3.51 1.44 7.09 1.02 10.81.81 1.04 0 2.08-.01 3.15-.02 5.64-.16 5.64-.16 8.04-.79 1.12-1.83 1.12-1.83 2-4 1.43-1.73 1.43-1.73 3.09-3.47.62-.65 1.23-1.29 1.86-1.96.66-.68 1.31-1.37 1.99-2.07 1.37-1.45 2.75-2.9 4.12-4.34.68-.71 1.35-1.42 2.05-2.16 2.49-2.64 4.95-5.31 7.39-8 4.24-4.64 8.52-9.23 12.81-13.81l1.92-2.04c1.28-1.37 2.57-2.74 3.85-4.1l9.36-9.99c.54-.58 1.08-1.15 1.64-1.75.53-.56 1.06-1.13 1.61-1.71.54-.57 1.09-1.13 1.65-1.71 1.66-1.89 1.66-1.89 3.24-4.31 3-4.25 4.97-6.31 10.2-7.29 4.51-.29 9.02-.15 13.53.02 2.35.07 4.68.13 7.03.16 1.45.01 2.9.05 4.34.13 1.99.03 1.99.03 5.32-.6 1.88-2.91 1.88-2.91 3-6 2.64-3.48 5.31-5.67 9.66-6.52 6.27-.24 10.38.68 15.34 4.52 3.69 3.78 4.31 6.88 4.5 12-.19 5.12-.87 8.18-4.5 12-5.36 4.05-9.25 5.56-16 5-5.34-1.95-8.27-4.98-11-10v-2c-4.08-.46-8.16-.34-12.27-.27-1.38.01-2.77.01-4.16-.02-6.08-.12-11.5-.16-16.65 3.46-2.51 2.5-4.73 5.04-6.92 7.83-1.2 1.38-2.41 2.76-3.62 4.13-.55.64-1.1 1.28-1.67 1.94-2.45 2.77-5.1 5.33-7.73 7.93-2.55 2.58-4.9 5.32-7.26 8.07-2.22 2.49-4.59 4.81-6.97 7.15-1.83 1.86-3.54 3.8-5.25 5.78-2.78 3.23-5.71 6.23-8.75 9.22-2.38 2.43-4.58 4.99-6.78 7.59-.65.72-1.3 1.45-1.97 2.19l-1.28 1.82c-2.68 3.35-4.45 5.04-8.81 5.53-4.92-.17-9.77-.6-14.65-1.15-6.19-.38-6.19-.38-9.26.8-.98 3.37-.76 6.02-.36 9.49.34 3.25.13 4.43-.76 7.39l.12 3.12c3.46 1.23 7.05.95 10.67.89 1.11-.01 2.22-.01 3.36-.01q3.54-.03 7.08-.12c3.59-.07 7.16-.04 10.75-.01 18.82-.13 18.82-.13 24.56-5.82 2.1-2.53 3.83-5.15 5.58-7.93 1.1-1.26 2.22-2.5 3.39-3.7.46-.5.92-1 1.39-1.52 4.62-5.03 9.34-9.93 14.21-14.73 2.54-2.59 4.89-5.31 7.24-8.06 2.59-2.91 5.37-5.62 8.17-8.33 1.6-1.66 1.6-1.66 2.6-3.66 2.58-.16 2.58-.16 5.97-.05 1.21.02 2.42.04 3.67.07 2.57.07 5.15.15 7.73.23.6.01.6.01 3.66.07 1.12.03 2.24.07 3.4.1.85-.14 1.7-.28 2.57-.42.73-1.86.73-1.86 1-4 6.04-6.67 6.04-6.67 10.42-7.41 6.4-.21 10.06.62 15.02 4.71 3.77 4.12 3.94 7.83 3.81 13.23-.48 4.8-2.26 7.56-5.75 10.78-5.06 3.42-10.57 3.56-16.5 2.69-2.93-1.52-5.12-3.27-7-6-.09-.85-.18-1.7-.28-2.57-.24-.8-.47-1.6-.72-2.43-6.67-2.19-16.31-.71-23 1-4.62 2.4-7.64 6.09-10.7 10.26-4.75 6.35-10.41 12.05-15.86 17.8-1.27 1.35-2.54 2.69-3.82 4.04-.72.72-1.44 1.45-2.18 2.2-1.96 2.17-3.49 4.21-5.11 6.61-3.84 5.34-7.56 10.28-14.27 11.73-9.58.72-19.22-.4-28.76-1.32-17.14-1.55-17.14-1.55-22.3.68-3.24 3.87-3.75 7.79-3.54 12.72.7 3.12 1.43 4.87 3.54 7.28 8.42 3.59 18.73 2.45 27.69 2.02 3.91-.19 7.8-.22 11.71-.2 26.15.06 26.15.06 35.7-8.71 2.64-2.84 5.04-5.76 7.3-8.92 2.63-3.6 5.64-6.86 8.6-10.19l1.52-1.82c1.48-1.68 1.48-1.68 4.48-4.18 2.33-.08 4.67-.09 7 0 .63-1.69.63-1.69 1-4 6.08-6.72 6.08-6.72 10.05-7.3 6.88-.04 11.31 1.43 16.33 6.3 3.14 3.91 3.43 7.43 3.15 12.34-1.03 5.2-3.6 8.28-7.84 11.31-4.75 2.38-9.52 2.2-14.69 1.35-2.98-1.52-5.07-3.27-7-6-.34-1.66-.68-3.33-1-5-3.8.34-5.74 2.66-8.1 5.39-.31.36-.31.36-1.88 2.17-1.4 1.69-2.75 3.41-4.06 5.16-13.89 18.39-13.89 18.39-23.98 20.24-4.47.5-8.88.41-13.36.17l-2.3-.12c-6.32-.38-12.6-1.02-18.89-1.72-24.27-2.67-24.27-2.67-30.43.71-3.21 7.92.51 17.64 2.93 25.48 1.24 4.09 2.05 8.12 2.82 12.32.55 2.32 1.11 4.64 1.69 6.95.3 1.24.6 2.49.91 3.77 3.35 13.63 7.14 26.56 12.65 39.48.41.97.82 1.95 1.24 2.95 9.99 23.64 21.49 46.92 37.45 67.19 1.31 1.86 1.31 1.86 1.31 3.86-3.75 1.25-6.05 1.59-10 1-2.46-2.25-4.04-4.97-5.75-7.81-.51-.81-1.02-1.62-1.54-2.45-1.6-2.56-3.16-5.15-4.71-7.74-.49-.81-.98-1.62-1.49-2.46a372 372 0 0 1-17.51-32.54c-.17-.36-.17-.36-1.05-2.17-11.38-23.55-19.06-48.17-23.95-73.83-.08-.43-.08-.43-.5-2.6-3.47-18.21-4.83-36.42-4.7-54.95.02-2.87.02-5.74.02-8.61 0-1.85.01-3.7.01-5.55.01-.85.01-1.69.01-2.57.03-4.36.35-8.42 1.16-12.72.09-1.99.18-3.97.24-5.96.3-9.17 1.75-17.73 3.8-26.66.81-3.57 1.38-7.12 1.84-10.75 2.72-18.7 9.5-38.39 17.12-55.63.76-1.79 1.52-3.59 2.28-5.38 19.62-45.84 48.61-88.09 86.72-120.62.91-.8 1.83-1.6 2.76-2.43 27.79-24.22 60.83-43.47 95.24-56.57l2.46-.96c26.66-10.27 55.16-16.95 83.54-20.04.89-.1 1.77-.2 2.69-.3 9.97-.99 19.99-.94 30-.95"/>
<path fill="#f3f6fa" d="M511.5 147.75h2.73c16.1.02 31.82.96 47.77 3.25 1.29.18 2.57.36 3.9.55 14.11 2.04 27.72 4.39 41.1 9.45 1.93.57 3.87 1.11 5.81 1.63.88.23 1.75.46 2.65.7.84.22 1.68.44 2.54.67 7.62 2.07 14.77 4.83 22 8 .69.3 1.38.59 2.08.9 34.55 14.9 66.91 33.82 94.4 59.73 2.09 1.97 4.21 3.84 6.4 5.68 9.14 7.97 17.62 16.69 25.13 26.21 1.83 2.28 3.74 4.41 5.74 6.54 25.5 28.53 45.55 66.33 57.46 102.54.92 2.8 1.87 5.58 2.83 8.36.71 2.12 1.43 4.24 2.15 6.35.33.98.66 1.96 1.01 2.97 3.07 9.16 5.47 18.46 7.27 27.96.38 1.99.79 3.98 1.21 5.96.88 4.25 1.63 8.51 2.32 12.8.14.87.28 1.73.43 2.62 5.17 33.62 5.36 70.86-.43 104.38-.08.5-.08.5-.5 3.05C838.92 598.8 818.07 649.74 787 691l-2 1-1-2-3 1v-2h-4c-.98-1.68-.98-1.68-1-4 1.45-2.35 1.45-2.35 3.69-5.06C807.97 644.02 824.81 599.37 834 555c.16-.75.31-1.5.47-2.27 4.08-20.02 4.89-40.23 4.78-60.6 0-1.05-.01-2.1-.01-3.18-.06-20.6-.71-40.78-5.24-60.95-.23-1.03-.46-2.06-.69-3.12-.78-3.53-1.57-7.05-2.37-10.57-.26-1.13-.52-2.27-.78-3.44-.25-1.07-.5-2.15-.76-3.26-.22-.96-.44-1.92-.67-2.91-.72-2.67-1.7-5.13-2.73-7.7a77 77 0 0 1-.93-4.27c-1-4.66-2.45-9.02-4.13-13.48-.31-.81-.61-1.63-.93-2.47-12.04-31.74-27.49-61.64-48.01-88.78-.43-.57-.85-1.14-1.29-1.72-6.74-8.92-13.94-17.25-21.71-25.28-.78-.8-1.55-1.61-2.36-2.44-9.79-10.09-19.51-19.95-30.88-28.26-1.94-1.43-3.83-2.92-5.72-4.42-16.16-12.75-33.52-23.03-51.69-32.64-1.95-1.03-3.88-2.07-5.81-3.11-6.76-3.56-13.73-6.1-20.95-8.55-3.22-1.09-6.41-2.25-9.59-3.44-.41-.16-.41-.16-2.53-.95-1.59-.61-3.19-1.22-4.79-1.83a85 85 0 0 0-13.21-3.78c-2.83-.66-5.52-1.58-8.27-2.51-8.09-2.53-16.3-3.69-24.67-4.88-2.66-.38-5.32-.77-7.98-1.16-4.84-.72-9.69-1.39-14.55-2.03-.97-.13-1.95-.26-2.95-.39-8.72-.97-17.55-.8-26.32-.8-2.83 0-5.66-.02-8.49-.03-11.24-.04-22.11.67-33.24 2.22-1.83.21-3.66.41-5.49.61-15.18 1.77-29.78 5.37-44.51 9.39-.94.26-1.88.51-2.85.78C362.62 189.26 304.92 224.4 265 272c-.46.54-.91 1.08-1.38 1.64C236.51 306.03 216.07 342.2 202 382c-.12.35-.12.35-.75 2.11-5.39 15.2-9.82 30.64-11.79 46.68-.46 3.24-1.2 6.3-2.02 9.46-1.83 7.48-2.07 14.96-2.28 22.62-.16 2.13-.16 2.13-.66 4.82-.62 4.13-.68 8.15-.7 12.32-.01.87-.02 1.74-.02 2.63q-.03 4.245-.03 8.49v2.92c.03 24.58 2.66 47.99 8.25 71.95.32 1.45.64 2.9.96 4.34 8.29 36.25 25.32 71.56 46.29 102.06.48.7.96 1.39 1.45 2.11.42.6.84 1.21 1.28 1.83C243 678 243 678 244 681c2.56.13 2.56.13 5 0v1c-1.71.64-1.71.64-3.94 1.25-.36.11-.36.11-2.21.64-.61.04-1.22.07-1.85.11-.16-.5-.16-.5-1-3h-2v-2c-2.81.06-2.81.06-5 1 1.64 1.69 3.31 3.35 5 5 .12 2.63.12 2.63-1 4-4.2-3.63-7.11-7.84-10.06-12.5-.48-.74-.95-1.48-1.43-2.25a435 435 0 0 1-23.45-42.19c-.26-.54-.26-.54-1.61-3.3-3.23-6.77-5.92-13.59-8.36-20.69C191 605 191 605 189.4 601.39c-2.1-5.1-3.43-10.37-4.84-15.7-.3-1.16-.61-2.32-.93-3.51-8.15-30.97-12.06-61.12-12.01-93.18.01-1.22.01-2.43.01-3.69.03-17.83.7-34.82 4.37-52.31.48-2.44.95-4.88 1.43-7.32 2.5-12.49 5.49-24.61 9.57-36.68.58-1.92 1.15-3.84 1.72-5.77 13.64-45.54 39.11-86.7 70.28-122.23.78-.9 1.57-1.79 2.38-2.72 7.98-9.01 16.43-17.51 25.62-25.28.93-.81 1.86-1.62 2.82-2.45C322.12 202.63 359.76 181.2 400 167c.68-.24 1.35-.49 2.05-.74 35.06-12.53 72.31-18.48 109.45-18.51"/>
<path fill="#0545ae" d="M276.7 701.797c.86-.01 1.72-.01 2.6-.02 2.8-.02 5.59-.02 8.39-.03h2.88c14.18 0 27.93.67 41.97 2.88 3 .45 6.01.78 9.04 1.1 8.71.94 17 2.92 25.42 5.27.65.18 1.3.36 1.97.55 9.34 2.59 18.57 5.55 27.78 8.58 1.04.33 2.07.67 3.14 1.02.98.32 1.96.65 2.97.99.87.28 1.74.57 2.64.87 2.71 1.07 5.03 2.47 7.5 3.99 1.7.74 3.41 1.47 5.12 2.19 20.66 8.97 39.6 22.36 55.88 37.81.5.47 1 .94 1.52 1.42 12.43 11.69 21.88 24.88 30.48 39.58.53.9 1.06 1.79 1.6 2.71 3.4 5.88 3.4 5.88 3.4 9.29h2c.64-1.58.64-1.58 1.25-3.81 5.92-18.62 20.14-34.64 33.75-48.19.5-.49.99-.99 1.5-1.5 12.97-12.9 28.22-22.97 44.38-31.39 1.98-1.03 3.94-2.09 5.89-3.15 20.57-10.94 42.64-17.66 65.23-22.96 1.05-.25 2.1-.51 3.19-.78 21.46-5.16 42.93-6.6 64.94-6.53.94 0 1.89.01 2.87.01q4.065.015 8.13.06c.41.01.41.01 2.45.03 8.74.14 8.74.14 12.42 1.21-1.85 2.7-3.69 4.71-6 7-.71.74-1.41 1.47-2.14 2.22-4.09 4.18-8.32 8.1-12.76 11.9-3.36 3.01-6.47 6.25-9.63 9.45-2.83 2.78-5.76 5.39-8.78 7.96-1.69 1.47-1.69 1.47-2.77 3.04-3.11 2.32-6.63 1.87-10.36 1.87-.43.01-.43.01-2.56.04-2.71.05-5.42.07-8.12.09-15.99.14-31.61.87-47.32 4.12-.4.08-.4.08-2.45.5-17.81 3.78-35.43 8.45-52.11 15.81-.83.37-1.66.73-2.51 1.11-29.51 13.17-63.42 33.76-78.49 63.89h-2c-1.49-1.99-2.87-3.99-4.25-6.06-20.62-29.78-51.06-47.94-83.75-61.94-.55-.24-.55-.24-3.32-1.46-9.99-4.17-20.6-6.39-31.1-8.9-2.07-.51-4.13-1.1-6.17-1.72-4.47-1.2-8.95-1.85-13.53-2.48-.87-.13-1.73-.25-2.61-.38-10.06-1.42-19.95-2.16-30.11-1.88-28.14.62-28.14.62-35.59-5.79a76 76 0 0 1-6.29-7.68c-1.77-2.37-3.88-4.14-6.15-6.02-5.72-5.09-11.05-10.56-16.42-16.01l-2.15-2.18c-.63-.65-1.27-1.3-1.93-1.97-1.63-1.53-1.63-1.53-3.63-2.53v-2c4.1-1.43 8.41-1.18 12.7-1.2"/>
<path fill="#0b40a3" d="M337 367c3.95 1.31 6.53 3.52 9.44 6.5 2.31 5.17 2.31 9.92 1.56 15.5-2.3 4.95-5.31 7.31-10 10-4.06 1.35-7.75 1.82-11.87.32-4.37-2.27-6.75-4.94-9.13-9.32v-2c-4.08-.46-8.17-.34-12.27-.27-1.38.01-2.77.01-4.16-.02-6.08-.12-11.5-.16-16.65 3.46-2.51 2.5-4.74 5.04-6.92 7.83-1.2 1.38-2.41 2.76-3.62 4.12-.55.65-1.1 1.29-1.67 1.95-2.45 2.77-5.1 5.33-7.74 7.93-2.54 2.58-4.89 5.32-7.26 8.07-2.21 2.49-4.58 4.81-6.96 7.15-1.83 1.86-3.54 3.8-5.25 5.78-2.78 3.23-5.71 6.23-8.75 9.22-2.38 2.43-4.59 4.99-6.78 7.59-.33.36-.33.36-1.97 2.19-.42.6-.85 1.2-1.29 1.82-2.67 3.35-4.45 5.04-8.81 5.53-4.91-.17-9.76-.6-14.64-1.15-6.19-.38-6.19-.38-9.26.8-.98 3.37-.76 6.02-.36 9.49.33 3.25.13 4.43-.76 7.39L192 480c3.46 1.23 7.04.95 10.67.89 1.11-.01 2.22-.01 3.36-.01q3.54-.03 7.08-.12c3.59-.07 7.16-.04 10.75-.01 18.81-.13 18.81-.13 24.56-5.82 2.09-2.53 3.83-5.15 5.58-7.93 1.1-1.26 2.22-2.5 3.38-3.7l1.4-1.52c4.62-5.03 9.34-9.93 14.2-14.73 2.55-2.59 4.89-5.31 7.25-8.06 2.59-2.91 5.37-5.62 8.17-8.33C290 429 290 429 291 427c2.58-.16 2.58-.16 5.97-.05.6.01.6.01 3.67.07 2.57.07 5.15.15 7.72.23 1.21.03 2.42.05 3.67.07 1.12.03 2.24.07 3.39.1.85-.14 1.7-.28 2.58-.42.72-1.86.72-1.86 1-4 6.03-6.67 6.03-6.67 10.42-7.41 6.4-.21 10.05.62 15.02 4.71 3.77 4.12 3.94 7.83 3.81 13.23-.49 4.8-2.27 7.56-5.75 10.78-5.06 3.42-10.58 3.56-16.5 2.69-2.93-1.52-5.12-3.27-7-6-.09-.85-.19-1.7-.28-2.57-.24-.8-.48-1.6-.72-2.43-6.67-2.19-16.31-.71-23 1-4.62 2.4-7.64 6.09-10.7 10.26-4.76 6.35-10.41 12.05-15.86 17.8-1.28 1.35-2.55 2.69-3.82 4.04-.72.72-1.44 1.45-2.19 2.2-1.95 2.17-3.48 4.21-5.1 6.61-3.84 5.34-7.57 10.28-14.27 11.73-9.58.72-19.22-.4-28.76-1.32-17.15-1.55-17.15-1.55-22.3.68-3.25 3.87-3.75 7.79-3.54 12.72.7 3.12 1.43 4.87 3.54 7.28 8.41 3.59 18.72 2.45 27.69 2.02 3.91-.19 7.8-.22 11.71-.2 26.15.06 26.15.06 35.7-8.71 2.64-2.84 5.03-5.76 7.3-8.92 2.63-3.6 5.64-6.86 8.6-10.19.5-.6 1-1.2 1.52-1.82C286 479.5 286 479.5 289 477c2.33-.08 4.67-.09 7 0 .62-1.69.62-1.69 1-4 6.08-6.72 6.08-6.72 10.05-7.3 6.88-.04 11.31 1.43 16.33 6.3 3.14 3.91 3.43 7.43 3.14 12.34-1.02 5.2-3.6 8.28-7.83 11.31-4.75 2.38-9.52 2.2-14.69 1.35-2.98-1.52-5.07-3.27-7-6-.35-1.66-.69-3.33-1-5-3.8.34-5.74 2.66-8.11 5.39-.62.72-1.23 1.43-1.87 2.17-1.4 1.69-2.75 3.41-4.07 5.16-13.88 18.39-13.88 18.39-23.98 20.24-4.46.5-8.87.41-13.35.17l-2.3-.12c-6.32-.38-12.6-1.02-18.89-1.72-24.27-2.67-24.27-2.67-30.43.71-3.21 7.92.51 17.64 2.93 25.48 1.24 4.09 2.04 8.12 2.82 12.32.54 2.32 1.11 4.64 1.69 6.95l.91 3.77c3.35 13.63 7.14 26.56 12.65 39.48.41.97.82 1.95 1.24 2.95 9.98 23.64 21.49 46.92 37.44 67.19C254 678 254 678 254 680c-3.76 1.25-6.05 1.59-10 1-2.46-2.25-4.04-4.97-5.75-7.81-.51-.81-1.02-1.62-1.54-2.45-1.6-2.56-3.16-5.15-4.71-7.74-.49-.81-.98-1.62-1.49-2.46A372 372 0 0 1 213 628c-.17-.36-.17-.36-1.05-2.17-11.38-23.55-19.07-48.17-23.95-73.83-.17-.86-.33-1.71-.5-2.6-3.47-18.21-4.83-36.42-4.71-54.95.02-2.87.02-5.74.02-8.61.01-1.85.02-3.7.02-5.55 0-.85 0-1.69.01-2.57.03-4.36.35-8.42 1.16-12.72.09-1.99.18-3.97.24-5.96.3-9.17 1.75-17.73 3.8-26.66.81-3.57 1.38-7.12 1.84-10.76 1.35-9.43 4.36-18.52 7.12-27.62.21-.71.42-1.43.64-2.16.52-1.79 1.06-3.56 1.61-5.34.29-.96.59-1.92.89-2.91.28-.52.57-1.05.86-1.59 2 3 2 3 2 6h-3c.06 1.88.06 1.88 1 4 2.15 1.38 3.44 2 6 2-.44 3.29-1.37 6.42-2.3 9.6-3.22 11.15-5.67 22.08-7.16 33.6C197 441 197 441 196 443c-1.01 3.08-1.78 5.8-1 9 3.51 1.44 7.08 1.02 10.81.81 1.04 0 2.08-.01 3.15-.02 5.64-.16 5.64-.16 8.04-.79 1.12-1.83 1.12-1.83 2-4 1.43-1.73 1.43-1.73 3.09-3.47.61-.65 1.23-1.29 1.86-1.96.66-.68 1.31-1.37 1.99-2.07 1.37-1.45 2.75-2.9 4.12-4.34.67-.71 1.35-1.42 2.04-2.16 2.5-2.64 4.95-5.31 7.4-8 4.24-4.64 8.51-9.23 12.81-13.81.63-.68 1.27-1.35 1.92-2.04 1.28-1.37 2.56-2.74 3.85-4.1l9.36-9.99c.27-.29.27-.29 1.64-1.75.53-.56 1.06-1.13 1.6-1.71.55-.57 1.09-1.13 1.66-1.71 1.66-1.89 1.66-1.89 3.24-4.31 2.99-4.25 4.97-6.31 10.19-7.29 4.52-.29 9.02-.15 13.54.02 2.34.07 4.68.13 7.02.16 1.45.01 2.9.05 4.35.13 1.99.03 1.99.03 5.32-.6 1.88-2.91 1.88-2.91 3-6 4.81-6.35 10.36-7.3 18-6"/>
<path fill="#067df2" d="M504.1 625.866c1.11 0 2.21-.01 3.35-.01h3.71c1.28 0 2.56-.01 3.88-.01 3.53-.01 7.06-.01 10.59-.01 2.21 0 4.42-.01 6.63-.01 7.73-.01 15.46-.01 23.19-.01q10.755 0 21.51-.03c6.18-.01 12.35-.02 18.53-.02 3.67.01 7.35 0 11.03-.01 27.79-.07 27.79-.07 39.29 1.79 6.87.98 13.89.78 20.83.76 1.92 0 3.85.03 5.77.06 1.13 0 2.25 0 3.41.01.36.1.36.1 2.18.62-1.3 5.54-5.44 9.73-9 14-.72.9-1.45 1.79-2.19 2.71-6.39 7.52-13.26 12.62-21.81 17.29-.65.36-1.3.72-1.97 1.08-15.52 8.15-31.29 8.12-48.36 8-3.87-.02-7.75 0-11.62.01-6.48.01-12.95 0-19.43-.04-7.49-.05-14.99-.03-22.48.01-6.46.04-12.92.04-19.38.02-3.85-.01-7.7-.01-11.55.01-3.6.03-7.19.01-10.79-.04-1.96-.01-3.92.01-5.88.04-5.84-.12-5.84-.12-8.54-1.09-.29-3.55-.14-4.83 1-8 .21-.94.43-1.89.65-2.87 2.46-8.69 5.33-17.16 8.48-25.63.13-.36.13-.36.8-2.18 2.42-6.44 2.42-6.44 8.17-6.45"/>
<path fill="#0d82f8" d="M664 267c3.53 3.19 5.89 6.02 6.16 10.89-.16 2.99-.16 2.99-.54 5.79.07.38.07.38.38 2.32 2.46 1.01 2.46 1.01 6 2 2.95 1.52 5.75 3.26 8.56 5 .8.49 1.59.98 2.41 1.49 7.04 4.41 13.63 9.21 20.03 14.51.59.49 1.18.97 1.78 1.47 10.87 9.05 20.42 18.42 29.22 29.53.78.95 1.56 1.91 2.37 2.89 10.36 12.93 18.44 27.22 25.63 42.11.22.46.22.46 1.35 2.78 2.69 5.73 4.85 11.49 6.76 17.52.84 2.55 1.82 4.99 2.89 7.45 3.34 8.26 5.69 17.11 6.48 25.99.07.77.14 1.55.21 2.35.12 1.5.21 3 .28 4.5.15 2.06.15 2.06 1.03 5.41 2.84 1.3 2.84 1.3 6 2 2.05 1.37 2.05 1.37 3.75 2.88.29.24.29.24 1.73 1.49 4.23 4.55 4.05 9.38 3.97 15.36-.81 5.91-4.06 9.24-8.47 12.98C790 487 790 487 787 487c-.25 2.59-.25 2.59-.11 6.15.78 38.05-10.91 78.44-31.74 110.33-1.4 3.06-1.23 4.38-.15 7.52.33.5.33.5 2 3 .73 4.84.65 9.5-1.69 13.88-3.43 4.63-6.82 7.36-12.31 9.12-1.87-.13-3.73-.32-5.59-.56-5.7-.09-8.11 1.38-12.23 5.27-1.97 2.03-3.86 4.12-5.74 6.23-1.91 2.06-3.83 4.1-5.76 6.15-.47.5-.94 1.01-1.42 1.53-4.68 4.96-9.84 9.23-15.26 13.38l-2.06 1.58c-1.71 1.29-3.45 2.55-5.19 3.8-.56.41-1.12.82-1.7 1.24-6.56 4.71-13.14 6.81-20.93 8.38-4.94 1.03-9.74 2.08-14.5 3.81-4.52 1.49-4.52 1.49-7.62.19 2.52-1.26 5.02-2.32 7.62-3.38 18.26-7.72 35.65-19.01 50.16-32.55 2-1.87 4.06-3.63 6.16-5.38 3.51-3.11 6.89-6.34 10.18-9.69.26-.24.26-.24 1.55-1.47 1.4-1.47 1.4-1.47 3.33-4.53-.66-3.54-.66-3.54-2-7-.85-5.86-.85-10.57 2.69-15.5 3.33-3.77 5.77-6.31 11-6.7 7.66-.12 7.66-.12 10.31 1.2.72-1.64 1.37-3.32 2-5 1.57-3.09 3.23-6.13 4.88-9.19 3.45-6.48 6.66-12.88 9.12-19.81.44-1.15.89-2.3 1.35-3.48 8.14-21.7 13.07-43.37 14.59-66.46.09-1.04.18-2.08.28-3.15.17-2.75.29-5.2-.22-7.91-2.83-1.54-2.83-1.54-6-2-5.64-4.98-8.6-8.82-9.12-16.34.24-5.38 2.23-9.63 5.88-13.55 4.59-4.11 4.59-4.11 7.24-4.11-.2-3-.54-5.85-1-8.81-.14-.9-.27-1.8-.41-2.72-1.44-8.71-3.97-16.91-6.85-25.23-.77-2.34-1.44-4.7-2.12-7.08-8.05-27.07-25.15-52.91-44.62-73.16-.24-.26-.24-.26-1.47-1.57C706.93 320.07 685 297.47 666 295c-1.7 1.29-3.36 2.63-5 4-5.73 2.49-10.58 2.72-16.56.94-5.29-2.98-9.1-7.3-11.44-12.94-1.02-6.28-.2-11.06 3.5-16.24 7.53-8.84 17.86-10.76 27.5-3.76"/>
<path fill="#0659c3" d="M551.638 540.814c.57.01.57.01 3.46.07l3.68-.03c3.31-.02 6.62 0 9.94.04 3.46.03 6.93.02 10.39.01q8.715 0 17.43.09c6.74.06 13.47.07 20.2.05 6.47-.01 12.94 0 19.41.04 2.76.01 5.52.01 8.28.01 3.84-.01 7.67.03 11.51.08 1.16 0 2.32-.01 3.51-.02 5.24.11 5.24.11 7.55.85-.24 2.88-.24 2.88-2 6-.37.87-.75 1.75-1.14 2.66-.21.44-.21.44-1.25 2.68l-1.4 3.03-1.46 3.13c-.94 2.03-1.89 4.06-2.83 6.09-.48.97-.96 1.94-1.46 2.94-1.46 3.47-1.46 3.47-2.01 7.09-.93 4.41-1.77 7.58-5.45 10.38-8.7 2.72-18.42 1.92-27.46 1.78-3.7-.05-7.4-.02-11.11-.01-6.2.01-12.4-.03-18.61-.11-7.2-.09-14.4-.1-21.6-.05-6.91.04-13.82.02-20.73-.02-2.96-.02-5.91-.02-8.86 0-4.1.02-8.19-.05-12.29-.12-.62.01-.62.01-3.77.05-5.57-.18-5.57-.18-7.57-1.52 1.01-4.23 3.51-7.5 6-11 .65-1.1 1.3-2.19 1.96-3.31l1.7-2.7c.31-.5.31-.5 1.91-3.05.64-1.01 1.27-2.03 1.93-3.07l1.94-3.09c1.84-2.94 3.69-5.87 5.56-8.78l1.08-2.23c3.48-6.47 6.31-7.82 13.56-7.96"/>
<path fill="#0348ae" d="M621.223 462.807c.43 0 .43 0 2.61-.02q4.29-.045 8.58-.06c.98-.01 1.95-.01 2.95-.02l15.42-.06c5.34-.01 10.67-.06 16.01-.11 4.08-.03 8.16-.04 12.24-.05 1.97-.01 3.94-.02 5.91-.05 2.74-.03 5.48-.03 8.22-.02.83-.02 1.66-.03 2.51-.05 2.23.02 2.23.02 5.33.63-.45 2.38-.45 2.38-2 5-.18.43-.18.43-1.1 2.57-.2.45-.2.45-1.18 2.71-.43.99-.86 1.98-1.31 3-.44 1.02-.89 2.04-1.35 3.1-.89 2.03-1.77 4.06-2.65 6.08-.21.49-.21.49-1.28 2.92-.9 2.1-1.8 4.19-2.7 6.29-.24.55-.24.55-1.43 3.33-.21.75-.42 1.49-.64 2.26-.85 2.61-1.69 4.56-3.36 6.74-3.57 1.38-7.05 1.22-10.83 1.15-1.11.02-2.21.03-3.35.04-3.64.04-7.28.01-10.92-.03-2.52.01-5.04.01-7.56.02-5.28.01-10.55-.01-15.83-.06-6.12-.05-12.25-.05-18.37-.01-5.88.04-11.75.03-17.62 0-2.52-.01-5.03 0-7.54.01-3.48.02-6.96-.02-10.45-.07-.53.01-.53.01-3.22.05-2.81-.07-2.81-.07-6.31-1.1 1.21-3.23 3.64-5.54 6-8 .56-.6 1.12-1.21 1.69-1.84 1.54-1.65 3.13-3.23 4.74-4.82l1.8-1.8c1.24-1.24 2.49-2.48 3.74-3.72 1.9-1.87 3.78-3.76 5.66-5.64 5.96-5.93 11.94-11.76 18.37-17.18 2.05-2.05 6.39-1.18 9.22-1.19"/>
<path fill="#0c2e80" d="M726.188 389.75c1.04-.01 2.08-.01 3.14-.02 2.95-.01 5.89 0 8.84 0 .91 0 1.81 0 2.75-.01 2.03.02 4.06.13 6.08.28l-1 2c-2.51.55-4.96.99-7.5 1.37-46.52 7.73-92.03 29.17-129.5 57.63-.56.43-1.13.86-1.71 1.3-20.32 15.5-39.22 32.66-56.29 51.7-.5.56-1.01 1.12-1.53 1.7-19.83 22.13-36.01 47.03-50.46 72.92-5.25 9.42-5.25 9.42-8.01 13.38l-1-2-2-1h2c.71-1.98 1.37-3.99 2-6 .65-1.63 1.31-3.26 2-4.87.33-.79.66-1.57 1-2.37l1-1.76h2l-.12-3.37.12-3.63c2-1.31 2-1.31 4-2v-2h2c.15-.99.29-1.98.44-3 .19-.99.37-1.98.56-3h3c.4-2.32.73-4.66 1-7 .81-2.37.81-2.37 2-4 1.33-.36 2.66-.7 4-1l1-3h2l-.06-2.31c.08-3.32.77-3.48 3.06-5.69.27-.99.54-1.98.81-3 1.57-3.96 3.43-4.23 7.19-6 1.75-2.69 1.75-2.69 3-5h2v-2h2v-2h2c.38-1.32.7-2.66 1-4 .94-2.25.94-2.25 2-4h2c.29-.62.58-1.24.88-1.87 1.12-2.13 1.12-2.13 3.19-3.13l1.93-1c.36-1.33.7-2.66 1-4l3-1c1.01-1.66 2.02-3.33 3-5h2v-2h2v-2h2c.13-.62.25-1.24.38-1.87.2-.71.41-1.41.62-2.13 1.33-.68 2.66-1.35 4-2 .35-.7.7-1.4 1.07-2.13.3-.61.61-1.23.93-1.87h3v-2h2v-2h2v-2c.99-.47 1.98-.95 3-1.44.99-.51 1.98-1.03 3-1.56v-3q2.985-1.53 6-3c.89-.89 1.78-1.77 2.69-2.69.76-.76 1.53-1.52 2.31-2.31h3l1-3h2v-4c1.32-.38 2.66-.7 4-1l1.88-1.94c2.53-2.46 4.79-3.02 8.12-4.06l1-2h2l1-3c1.57-.99 1.57-.99 3.57-1.87 3.79-1.77 7.2-3.84 10.67-6.18 1.76-.95 1.76-.95 4.76-.95.29-.62.58-1.24.88-1.87 1.12-2.13 1.12-2.13 3.56-3.38 2.56-.75 2.56-.75 5.56-.75 1.78-3.28 2.57-6.28 2-10l-3 2c-1.33.35-2.66.68-4 1-2.5.98-4.98 2.02-7.46 3.06-2.54.94-2.54.94-5.24 1.4-2.3.54-2.3.54-4.05 3.1-2.25 2.44-2.25 2.44-4.22 2.63l-4.65-.27c-4.86.16-8.86 2.86-12.57 5.83-1.81 1.25-1.81 1.25-4.13 1.18-3.13.08-4.69.87-7.37 2.44-.76.45-1.53.89-2.32 1.34-1.99 1.29-1.99 1.29-3.99 3.29l-3-1c-2.63 1.11-2.63 1.11-5.56 2.75-.97.53-1.94 1.06-2.94 1.61-2.5 1.64-2.5 1.64-4.5 4.64q-1.035.21-2.1.42c-4.17.84-7.51 2.86-11.21 4.89-1.45.79-2.91 1.58-4.36 2.37-.72.38-1.43.77-2.17 1.17-2.77 1.48-5.6 2.86-8.43 4.22-2.49 1.34-4.56 3.14-6.73 4.93h-2c-.16.5-.16.5-1 3v-2c-1.68 1.32-3.34 2.65-5 4-.49.16-.49.16-3 1l-1 2h-3c-1.72 1.68-1.72 1.68-3.5 3.87-4.82 5.91-4.82 5.91-9.37 6.5-3.67.74-5.33 2.22-8.13 4.63h-2c-.27.6-.53 1.2-.81 1.81-1.57 2.89-3.32 3.62-6.19 5.19-4.87 3.11-9.24 6.6-13.6 10.39-2.47 2.12-4.28 3.57-7.4 4.61-2.67 2.41-4.75 4.57-6.56 7.69-1.63 2.62-2.65 3.13-5.44 4.31-1.36.96-2.69 1.97-4 3-.88.68-1.77 1.36-2.69 2.06-2.31 1.94-2.31 1.94-3.31 3.94-2.69.87-2.69.87-5 1 2.8-7.8 11.87-13.77 18-19 .93-.8 1.85-1.6 2.8-2.43 33.97-29.29 72.2-52.5 112.2-72.57 1.12-.56 2.23-1.12 3.37-1.7 16.85-8.45 33.97-15.75 51.63-22.3 1-.37 2-.75 3.03-1.14 17.89-6.66 36.25-11.74 54.96-15.55 2.01-.41 4.01-.86 6.01-1.31-14.81 1.48-29.42 4.03-44 7-.99.2-1.98.4-3 .6-16.12 3.23-31.84 6.88-47.42 12.19-3.16 1.07-6.32 2.06-9.51 3.02-4.39 1.33-8.74 2.74-13.08 4.22-.53.18-.53.18-3.26 1.1-2.17.74-4.34 1.48-6.5 2.23-1.01.34-2.01.68-3.04 1.03-.91.31-1.81.62-2.74.94-2.45.67-2.45.67-6.45.67-.08-1.3-.16-2.6-.25-3.94-.15-2.22-.15-2.22-.75-4.06-3.81-.87-3.81-.87-5.89-.87-2.47-.15-4.22-.47-6.11-2.13 2.2-1.2 4.21-2 6.57-2.81.74-.27 1.49-.53 2.26-.81 40.19-13.94 84.04-19.99 126.17-24.38 1.09-.12 2.19-.24 3.31-.36 15.61-1.69 31.19-1.84 46.88-1.89"/>
<path fill="#0a2d83" d="M523.137 159.762c.55 0 .55 0 3.32.02.5.01.5.01 3.01.04.44.01.44.01 2.66.03l1.87.15v1c-3.28.33-6.57.51-9.86.72-.71.09-1.41.18-2.14.28.37.05.37.05 2.21.34.92.22 1.84.44 2.79.66l-1 3c1.87.47 1.87.47 4.44.62 1.52.1 3.05.22 4.56.38v1c-2.8.11-5.58.16-8.39.17-.85 0-1.71 0-2.59.01h-5.46c-2.78.01-5.56.02-8.34.04-1.77.01-3.53.01-5.29.01-.42 0-.42 0-2.53.02-4.02-.02-6.89-.07-10.4-2.25-3.68-.88-3.68-.88-7-1-1.12 1.87-1.12 1.87-1 4l3 1c-2.29.29-4.57.49-6.87.69-20.23 1.98-40.74 6.21-60.13 12.31-.78.24-1.56.47-2.37.72-41.43 12.62-83.01 34.35-114.63 64.28-1.3 1.15-2.62 2.3-3.93 3.44-14.82 12.95-14.82 12.95-20.34 19.52-1.93 2.28-3.95 4.47-5.98 6.66-9.11 10.12-17.24 21.02-24.75 32.38-.44.66-.89 1.33-1.34 2.01-15.11 22.76-26.61 47.05-36.01 72.67-.44 1.2-.88 2.39-1.33 3.62-.4 1.09-.8 2.18-1.2 3.3-.37.79-.74 1.58-1.12 2.4h-2c-.16.33-.16.33-1 2l-3-3-2 1c.25-2.88.25-2.88 1-6l2-1-.18-3.25c-.09-6.46 2.68-11.92 5.18-17.75.37-.89.74-1.77 1.13-2.68 19.68-46.9 48.99-90.13 87.87-123.32.91-.8 1.83-1.6 2.76-2.43 27.79-24.22 60.84-43.47 95.24-56.57l2.46-.96c17.7-6.82 36.03-11.44 54.52-15.59 1.8-.4 3.6-.82 5.41-1.24 21.82-4.84 44.53-3.65 66.75-3.45"/>
<path fill="#0346ae" d="M504.246 625.286c4.52-.22 8.99-.08 13.51.12l5.86.06c5.12.05 10.24.2 15.36.38 5.25.15 10.49.21 15.74.28 7.62.12 15.23.27 22.85.51l2.48.06c1.65.06 3.3.17 4.95.3-1.32.37-2.66.69-4 1-.35 1.33-.68 2.67-1 4-2.07 2.66-2.07 2.66-4.68 5.5-.85.94-1.7 1.88-2.58 2.85-2.74 2.65-2.74 2.65-6.03 4.71-2.71 1.94-2.71 1.94-3.37 4.23.01.39.01.39.04 2.34.02 2.35.02 2.35-.38 4.37-1.95 1.13-1.95 1.13-4 2-1.06 2.32-1.06 2.32-2 5-.32.46-.32.46-1.93 2.75-.35.75-.71 1.49-1.07 2.25 2.32.75 2.32.75 5 1v1c-2.26.14-4.53.2-6.81.23-.36 0-.36 0-2.19.03-7.55.11-15.11.16-22.67.2-3.59.03-7.19.07-10.79.13-4.32.07-8.64.1-12.97.12-1.66.01-3.31.03-4.97.06-2.31.05-4.61.05-6.92.04-1.31.02-2.63.03-3.99.04-.88-.28-1.77-.56-2.69-.85.05-3.37.05-3.37 1-7 .22-.91.43-1.83.65-2.77 2.92-10.46 2.92-10.46 4.43-14.44.92-2.79.92-2.79 1.71-6.7 1.69-7.33 3.34-12.76 11.46-13.8"/>
<path fill="#0d49b0" d="M664 267c3.53 3.19 5.89 6.02 6.16 10.89-.16 2.99-.16 2.99-.54 5.79.07.38.07.38.38 2.32 2.46 1.01 2.46 1.01 6 2 2.95 1.52 5.75 3.26 8.56 5 .8.49 1.59.98 2.41 1.49 7.04 4.41 13.63 9.21 20.03 14.51.59.49 1.18.97 1.78 1.47 10.87 9.05 20.42 18.42 29.22 29.53.78.95 1.56 1.91 2.37 2.89 10.36 12.93 18.44 27.22 25.63 42.11.22.46.22.46 1.35 2.78 2.69 5.73 4.85 11.49 6.76 17.52.84 2.55 1.82 4.99 2.89 7.45 3.34 8.26 5.69 17.11 6.48 25.99.07.77.14 1.55.21 2.35.12 1.5.21 3 .28 4.5.15 2.06.15 2.06 1.03 5.41 2.89 1.36 2.89 1.36 6 2 4.71 3.14 4.71 3.14 5.69 6.06.1.64.2 1.28.31 1.94l2 3c.61 3.74.83 7.29 0 11-3.44 1.25-3.44 1.25-7 0-.61-2.25-.63-4.34-.73-6.66-.27-2.34-.27-2.34-2.27-5.4-3.56-2.3-5.76-2.59-9.93-2.39-2.87.62-4.07 2.38-6.07 4.45-3.25-.44-3.25-.44-6-2-.81-2.25-.81-2.25 0-5 2.11-2.31 4.38-4.28 7-6h2c-.2-3-.54-5.85-1-8.81-.14-.9-.27-1.8-.41-2.72-1.44-8.71-3.97-16.91-6.85-25.23-.77-2.34-1.44-4.7-2.12-7.08-8.05-27.07-25.15-52.91-44.62-73.16-.24-.26-.24-.26-1.47-1.57C706.93 320.07 685 297.47 666 295c-1.7 1.29-3.36 2.63-5 4-5.73 2.49-10.58 2.72-16.56.94-5.29-2.98-9.1-7.3-11.44-12.94-1.02-6.28-.2-11.06 3.5-16.24 7.53-8.84 17.86-10.76 27.5-3.76"/>
<path fill="#065cd0" d="M360 537h2v2c1.09-.06 2.19-.12 3.31-.19.89.06 1.78.13 2.69.19-1.61 1.78-3.24 3.38-5 5l-2.83 2.65c-.99.91-1.99 1.82-2.98 2.73-.49.44-.97.88-1.47 1.34-2.11 1.93-4.23 3.86-6.41 5.72-6.34 5.4-12.19 11.29-18.06 17.18-1.81 1.81-3.62 3.62-5.43 5.42C320 584.86 314.3 590.7 309 597c-.98 1.13-1.97 2.26-2.96 3.39-13.75 15.85-26.27 32.67-37.36 50.5-.87 1.38-1.77 2.75-2.68 4.11h-1c-.14-2.36-.21-4.69-.24-7.05-.01-.75-.03-1.5-.04-2.27-.13-7.87-.18-15.75-.23-23.62-.03-3.74-.08-7.47-.15-11.21-.08-4.5-.12-9.01-.14-13.52-.01-1.71-.04-3.43-.08-5.14-.3-13.47-.3-13.47 2.64-17.77 2-1.76 3.94-3.09 6.24-4.42 1.35-1.31 2.69-2.64 4-4 3.83-3.88 7.81-7.51 12-11 .74-.63 1.48-1.26 2.25-1.91.36-.29.36-.29 2.19-1.78.66-.54 1.31-1.08 1.99-1.63.52-.23 1.04-.45 1.57-.68.87 1.79.87 1.79 1 4-1.65.71-3.32 1.37-5 2-1.41 2.11-1.95 3.61-2.25 6.12-.25.62-.5 1.24-.75 1.88-2 .67-4 1.33-6 2-.75 2-.75 2-1 4l-2 2 3 2c-2 .35-4 .69-6 1v2l2 1h-3v-2c-2.31-.12-2.31-.12-5 1-1.77 2.51-3.05 4.88-3 8 3.69.75 3.69.75 5.98.8.66.07 1.33.13 2.02.2 1.56 1.94 1.56 1.94 2 4l-1 2c2.73-.36 5.38-.99 8.07-1.59 3.04-.43 4.96-.06 7.93.59 2.13-.01 4.25-.1 6.38-.25 1.08-.07 2.16-.13 3.27-.2.77-.18 1.55-.36 2.35-.55l-1-3c.67-1.33 1.33-2.67 2-4-.33-.16-.33-.16-2-1 1.05-2 1.05-2 3-4 2.45-.71 2.45-.71 5.12-.94.45-.04.45-.04 2.7-.27.72.07 1.44.14 2.18.21l1 3c1.03-1.31 2.02-2.65 3-4l3-1 1-3c3.44-3 3.44-3 6-3v-4c1.81-1.06 1.81-1.06 4-2l1.5-1.5c1.5-1.5 1.5-1.5 3.56-2.44 2.46-1.35 2.73-2.56 3.94-5.06 4.33-4.78 4.33-4.78 8-6l1-2h2c.7-1.65 1.36-3.32 2-5l2-2z"/>
<path fill="#0a57c9" d="M833 443h1c.25 2.88.25 2.88 0 6l-3 2c-.54 8.4-.54 8.4 1 12 .16-.5.16-.5 1-3h4c.57-1.75.57-1.75.69-4 .08-1.33.18-2.67.31-4h1c1.4 12.08 1.19 24.37 1.19 36.51 0 3.09.02 6.18.03 9.28.06 18.16-1.03 36.11-4.53 53.96-.22 1.13-.44 2.27-.66 3.44-1.72 8.75-3.81 17.32-6.43 25.84-.57 1.87-1.11 3.76-1.64 5.64-10.17 34.71-26.5 66.56-47.77 95.69-.99 1.37-1.96 2.76-2.91 4.15-.42.49-.84.98-1.28 1.49-2.92-.82-5.27-2.51-7-5 1.12-2.73 2.64-5.02 4.4-7.37C786.06 657 796.31 636.92 806 616c.42-.89.85-1.78 1.28-2.69 5.55-11.84 9.45-24.13 12.78-36.75.09-.32.09-.32.52-1.95 2.25-8.52 4.27-17.05 5.8-25.73.14-.82.28-1.63.43-2.47.45-2.8.83-5.6 1.19-8.41.04-.33.04-.33.26-2 1.72-13.65 2.02-27.17 1.95-40.91-.02-3.44-.02-6.88-.02-10.32-.01-2.21-.02-4.42-.02-6.63 0-1.02 0-2.04-.01-3.08-.03-5.14-.31-10-1.16-15.06-.13-2.1-.22-4.21-.25-6.31-.03-1.03-.05-2.06-.08-3.12.11-.85.22-1.69.33-2.57l3-2z"/>
<path fill="#0344ab" d="M547.935 541.735c2.33 0 4.67.05 7 .16 1.23.01 2.46.02 3.73.04 3.93.05 7.85.18 11.77.31 2.67.06 5.33.09 8 .13 4.85.08 9.69.18 14.54.34l2.95.09c.68.06 1.37.13 2.07.19v1c-.94.09-1.89.17-2.87.25-.52.13-.52.13-3.13.75-1.18 2.57-1.18 2.57-2 5h-3c-.44 1.98-.44 1.98-.68 4.63-.53 3.25-.87 4.91-3.18 7.3-1.42 1.02-2.87 2-4.36 2.92-1.78 1.15-1.78 1.15-2.78 3.15h-4c-.38 2-.71 4-1 6l-3 1c-.16-.33-.16-.33-1-2-1.67 1.33-3.34 2.66-5 4h-3v4c-.33.17-.33.17-2 1 .62.15 1.24.29 1.88.44.35.09.35.09 2.12.56v2c-3.17.25-6.26.36-9.44.38-.48 0-.48 0-2.9.02-2.02.02-4.05.03-6.08.03-3.13.01-6.25.06-9.38.11-1.96.01-3.92.02-5.89.02l-2.86.06c-2.61-.02-2.61-.02-6.45-.62-.53-4.01 2.29-7.47 4.36-10.78.68-1.11 1.37-2.22 2.08-3.36l2.19-3.48c.71-1.14 1.41-2.27 2.12-3.41 3.78-6.06 3.78-6.06 5.07-8.01 1.18-1.96 1.18-1.96 2.55-4.78 2.98-5.68 4.92-8.81 11.57-9.44"/>
<path fill="#0668d7" d="M613 463c2.71-.12 5.4-.18 8.11-.19l2.61-.03c2.87-.02 5.73-.04 8.6-.05.97-.01 1.95-.01 2.95-.02 5.15-.03 10.29-.05 15.44-.06 5.34-.02 10.69-.06 16.03-.11 4.09-.04 8.17-.05 12.26-.05 1.97-.01 3.94-.03 5.91-.05 2.75-.03 5.49-.03 8.24-.02.83-.02 1.66-.04 2.51-.05 2.24.02 2.24.02 5.34.63-.44 2.38-.44 2.38-2 5-.36.85-.72 1.69-1.1 2.57-.19.44-.19.44-1.18 2.7-.43.99-.86 1.98-1.3 3-.45 1.03-.9 2.05-1.36 3.11-.88 2.02-1.77 4.05-2.65 6.08-.21.48-.21.48-1.27 2.92-.91 2.09-1.81 4.19-2.71 6.28-.23.55-.23.55-1.43 3.34-.21.75-.42 1.49-.64 2.26-.85 2.61-1.69 4.56-3.36 6.74-3.54 1.31-6.94 1.1-10.67.95-1.04-.01-2.08-.02-3.15-.02-3.31-.04-6.62-.14-9.93-.24-2.25-.03-4.49-.05-6.74-.07-2.12-.04-4.25-.07-6.37-.11-1.01-.02-2.03-.03-3.08-.05-.46-.02-.46-.02-2.81-.09-.82-.02-1.64-.05-2.49-.07-.58-.1-1.16-.2-1.76-.3v-2c-.72-.14-1.43-.28-2.17-.42-.6-.19-1.21-.38-1.83-.58.83-1.43.83-1.43 2.67-3.24.65-.65 1.29-1.31 1.95-1.98.71-.69 1.41-1.38 2.13-2.09q2.04-2.01 4.05-4.05c.61-.6 1.22-1.21 1.85-1.82C645 489 645 489 645 485c3.47-4.07 7.22-6.89 12.19-8.88 2.56-1.59 2.98-3.28 3.81-6.12v-3c2.38-.72 2.38-.72 5.22-1.16 1.25-.28 2.5-.56 3.78-.84-3.81-.54-7.75-.35-11.59-.38-1.95-.02-3.9-.05-5.86-.08-2.78-.03-5.57-.06-8.36-.08-4.83-.05-9.67-.1-14.51-.17-2.58-.03-5.17-.05-7.76-.08-1.17-.01-2.34-.02-3.54-.04-.52 0-.52 0-3.16-.03-.73-.04-1.46-.09-2.22-.14z"/>
<path fill="#0273ea" d="M642.32 542.784c3.64-.2 7.28-.31 10.93-.41 1.27-.07 2.54-.14 3.85-.21 5.93-.13 5.93-.13 8.9.84-.31 3.85-1.22 5.61-3 9-1.03 2.34-2.05 4.69-3.07 7.04-1.15 2.58-2.32 5.14-3.49 7.71-.89 1.95-1.78 3.91-2.66 5.87-.8 1.76-1.6 3.52-2.41 5.29-1.37 3.09-1.37 3.09-2.12 5.74-.2.39-.2.39-1.25 2.35-2.41.6-2.41.6-5.46.58-1.14 0-2.28 0-3.46.01-1.23-.02-2.47-.05-3.74-.07-1.27-.01-2.53-.01-3.83-.02-2.67-.01-5.34-.03-8.01-.07-3.44-.05-6.87-.08-10.31-.09-5.66-.03-11.33-.07-16.99-.15-1.01-.01-2.01-.03-3.05-.04l-2.15-.15v-1c2.7-.25 5.4-.39 8.1-.53l1.9-.47c-.97-1.04-1.97-2.03-3-3 1.35-4.06 3.45-4.73 7-7 6.83-5.6 12.69-11.71 18.12-18.66 1.55-1.93 3-3.73 4.88-5.34h2c-.14-.97-.29-1.94-.44-2.94.15-1.01.29-2.02.44-3.06 4.12-.74 8.15-.95 12.32-1.22"/>
<path fill="#08328d" d="M337 367c3.95 1.31 6.53 3.52 9.44 6.5 2.31 5.17 2.31 9.92 1.56 15.5-2.3 4.95-5.31 7.31-10 10-4.06 1.35-7.75 1.82-11.87.32-4.37-2.27-6.75-4.94-9.13-9.32v-2c-4.08-.46-8.17-.34-12.27-.27-1.38.01-2.77.01-4.16-.02-6.08-.12-11.5-.16-16.65 3.46-2.51 2.5-4.74 5.04-6.92 7.83-1.2 1.38-2.41 2.76-3.62 4.12l-1.66 1.9c-.57.66-1.13 1.31-1.72 1.98-.68.8-1.36 1.59-2.07 2.41-.7.77-1.4 1.55-2.12 2.34-.63.72-1.26 1.43-1.92 2.17-.31.18-.31.18-1.89 1.08-2.45-1.74-3.69-3.32-4.94-6.05-.06-1.95-.06-1.95 1.13-3.59.6-.53 1.19-1.06 1.81-1.61 2.56-2.39 4.97-4.78 7.25-7.44.56-.62 1.11-1.24 1.69-1.88 2.06-2.43 2.06-2.43 4.22-5.45 3.52-4.68 6.82-8.97 12.87-9.95 4.5-.35 8.97-.15 13.47.09 2.32.1 4.64.18 6.96.22 1.43.03 2.87.09 4.3.18 1.95.06 1.95.06 5.24-.52 1.87-2.91 1.87-2.91 3-6 4.81-6.35 10.36-7.3 18-6"/>
<path fill="#106cdd" d="M365 620c.17.33.17.33 1 2l3 1c-.95 2.03-.95 2.03-2.69 4.5-.56.81-1.12 1.63-1.7 2.47C363 632 363 632 361 633c-1.37 2.57-2.56 5.2-3.78 7.85-.2.35-.2.35-1.22 2.15h-2c-.1.8-.21 1.61-.31 2.44-.65 3.35-1.44 5.11-3.13 8-2.23 3.84-3.83 7.16-4.56 11.56l3 1v3l2 1h-4v-3c-3.06-.56-3.06-.56-6 0 .19 2.81.19 2.81 1 6l-1 3c5.09 1.87 10.43 3.06 15.88 2.94l2.12.06v2c.5.08.5.08 3 .5.5.08.5.08 3 .5v2l2.94-.12c4.74-.15 9.14 1.46 13.06 4.12v3c1.97 0 1.97 0 4.5-.44 2.53-.43 2.53-.43 4.5-.56v2h2.19c3.11 0 5.06.58 7.81 2v2l2.19-.06c3.49.08 4.9 1.19 7.81 3.06q1.89.81 3.81 1.56c1.05.48 2.11.95 3.19 1.44v2h4v2h6v2h2v2c2.31.56 2.31.56 5 1 .5.16.5.16 3 1v2c.82.33 1.65.66 2.5 1 .82.33 1.65.66 2.5 1v2c3.13.87 5.72 1 9 1l2 1-1 2c.8.12 1.61.25 2.44.38.84.2 1.69.41 2.56.62v4c3.58 1.67 5.2 2.27 9 1 .31-3.56.31-3.56 0-7h-2c-.74-2.31-1.4-4.65-2-7-1-3-1-3-4-5 1.38-2.06 1.38-2.06 3-4l-1-1c-.11-2.06-.16-4.12-.18-6.19-.01-.63-.01-.63-.07-3.8-.03-2.01-.06-4.02-.08-6.03a280 280 0 0 0-.1-5.79c-.01-1.16-.02-2.33-.04-3.52-.09-.44-.09-.44-.53-2.67-2.09-.8-2.09-.8-4-1 .85-1.38.85-1.38 2.62-3.12 4.96-5.38 5.56-11.09 6.04-18.16.05-.28.05-.28.34-1.72h2c.09-2.23.09-2.23-.06-5.19-.1-4.52.13-7.17 3.06-10.81l1-2 3 1c-.28 6.16-2.31 12.09-3.94 18-8.51 32.01-6.29 60.33 10.17 89.32 2.62 4.51 5.43 8.77 8.63 12.9C489 757 489 757 489 760c-2.2-2.02-4.25-4.08-6.31-6.25-5.92-6.06-11.95-11.61-18.69-16.75-.67-.52-1.33-1.03-2.02-1.56A267 267 0 0 0 426 712c-.76-.42-1.52-.83-2.31-1.26-13.08-7.13-26.13-13.13-40.31-17.8-.66-.22-1.32-.44-1.99-.66-9.09-3.02-18.16-5.69-27.53-7.66C351 684 351 684 349 683c-2.31-.37-4.62-.69-6.94-1-6.74-.89-6.74-.89-10.06-2 1.85-7.71 5.65-14.45 9.44-21.38.31-.56.31-.56 1.86-3.44a389 389 0 0 1 16.47-27.31c.82-1.25 1.63-2.51 2.42-3.78.88-1.4 1.83-2.76 2.81-4.09"/>
<path fill="#0c3185" d="M664 267c3.53 3.19 5.89 6.02 6.16 10.89-.16 2.99-.16 2.99-.54 5.79.07.38.07.38.38 2.32 2.45 1 2.45 1 6 2 3.03 1.58 5.91 3.38 8.81 5.19.8.49 1.59.98 2.41 1.49 13.59 8.5 13.59 8.5 15.78 11.32-4.32 2.88-7.93 2.81-13 2-3.73-1.59-7.01-3.69-10.38-5.94-1.73-1.11-3.47-2.23-5.21-3.34-.75-.49-1.5-.99-2.28-1.5-2.11-1.21-3.72-1.94-6.13-2.22-1.7 1.29-3.36 2.63-5 4-5.73 2.49-10.58 2.72-16.56.94-5.29-2.98-9.1-7.3-11.44-12.94-1.02-6.28-.2-11.06 3.5-16.24 7.53-8.84 17.86-10.76 27.5-3.76"/>
<path fill="#0c5cce" d="M202 574c2.69 4.04 3.63 8.41 4.88 13.05 1.84 6.55 4.43 12.71 7.12 18.95.41.97.82 1.94 1.24 2.94 9.97 23.65 21.49 46.93 37.44 67.2C254 678 254 678 254 680c-3.76 1.25-6.05 1.59-10 1-2.46-2.25-4.04-4.97-5.75-7.81-.51-.81-1.02-1.62-1.54-2.45-1.6-2.56-3.16-5.15-4.71-7.74-.49-.81-.98-1.62-1.49-2.46A372 372 0 0 1 213 628c-.35-.72-.69-1.43-1.05-2.17-5.25-10.85-9.57-21.95-13.51-33.33-.23-.64-.45-1.29-.68-1.95C194 579.71 194 579.71 194 575c.33.16.33.16 2 1l-1 2c1.67-.66 3.34-1.33 5-2l1 1z"/>
<path fill="#0476f1" d="M302 598c2.94-.12 2.94-.12 5 1-2 2.69-2 2.69-3.81 4.62-2.56 2.79-4.92 5.71-7.25 8.69-.47.6-.93 1.19-1.41 1.8a503 503 0 0 0-24.46 34.3c-1.57 2.4-3.04 4.56-5.07 6.59-.25-1.62-.25-1.62-.26-4.27-.01-.98-.01-1.96-.02-2.97.01-1.09.01-2.17.01-3.28v-3.31c0-2.32 0-4.64.01-6.95.01-3.57 0-7.14-.01-10.7v-6.73c0-1.08 0-2.16-.01-3.27.01-.99.01-1.97.02-2.99 0-.88 0-1.75.01-2.66.08-.61.16-1.23.25-1.87h2c.07-.65.14-1.3.21-1.98.26-.66.52-1.33.79-2.02 2.95-.46 2.95-.46 6.69-.38.61.01.61.01 3.7.04 3.49.33 6.3 1.23 9.61 2.34v-2h4l1-2 1 1c3.5.25 3.5.25 7 0z"/>
<path fill="#005bca" d="M575.125 626.875c1.01 0 2.02-.01 3.05-.01 2.28 0 4.55.06 6.83.13-.57.14-1.14.27-1.73.41-.75.19-1.5.39-2.27.59-.36 1.33-.69 2.67-1 4-2.08 2.66-2.08 2.66-4.69 5.5-.85.94-1.7 1.88-2.58 2.85-2.73 2.65-2.73 2.65-6.03 4.71-2.7 1.94-2.7 1.94-3.37 4.23.01.77.03 1.55.04 2.34.02 2.35.02 2.35-.37 4.37-1.96 1.13-1.96 1.13-4 2-1.07 2.32-1.07 2.32-2 5l-1.94 2.76c-.18.37-.18.37-1.06 2.24 2.31.76 2.31.76 5 1v1c-2.51.15-4.98.22-7.48.24l-2.29.03-4.82.03c-2.47.02-4.94.06-7.42.11-1.55.01-3.1.01-4.66.02-.74.02-1.49.04-2.26.05-2.07-.01-2.07-.01-5.07-.48-.11-1.87-.11-1.87 1-4 2.31-2.5 2.31-2.5 5-5 .72-.76 1.44-1.52 2.18-2.31 1.82-1.69 1.82-1.69 3.82-1.69.33.66.65 1.33 1 2 3.14-2.88 5.63-5.44 8-9 .99-.65 1.98-1.32 3-2-.03-.78-.05-1.56-.07-2.37.07-2.63.07-2.63 1.75-4.5.77-.7 1.53-1.4 2.32-2.13.94-1.14 1.86-2.31 2.74-3.5.43-.56.86-1.13 1.3-1.71.96-1.79.96-1.79.96-5.79 5.36-1.72 11.53-1.14 17.12-1.12"/>
<path fill="#083ea1" d="M317.188 467.063c4.55 3.14 8.2 5.96 9.36 11.59.27 5.61-.48 9.48-3.97 13.91-4.92 4.48-9.14 5.08-15.62 4.92-3.93-.64-6-2.02-8.77-4.81-1.5-2.11-1.72-4.16-2.19-6.67-3.92.45-5.79 2.75-8.19 5.62-.48.63-.97 1.27-1.48 1.92-.44.48-.87.96-1.33 1.46h-2l-1-2-3-1 1-3h3c.71-1.99 1.37-3.99 2-6 1.44-1.94 1.44-1.94 3-3l3 1v2c2.5.37 2.5.37 5 0v-4c-3-.19-3-.19-6 0v-1l3.5.12 3.5-.12v-3h2c-.04-.37-.04-.37-.25-2.25.25-2.75.25-2.75 2.69-5.07 5.5-2.6 10.01-2.53 15.75-.62"/>
<path fill="#154caf" d="M338 416c4.6 2.28 8.14 5.14 10 10 .75 5.9.45 11-3 16-5.11 4.73-9.41 5.47-16.2 5.41-3.81-.56-5.78-2.04-8.56-4.61-1.24-1.8-1.24-1.8-1.5-4.38-.12-.4-.12-.4-.74-2.42-2.22-.55-2.22-.55-5.13-.45l-3.13.06c-1.09.05-2.18.09-3.3.14-2.15.06-4.3.12-6.44.17-.48.02-.48.02-2.9.11L295 436v-1c3.58-.25 7.16-.39 10.74-.52 1.08-.16 2.15-.32 3.26-.48l2-3c2-.36 4-.69 6-1v-2c-2.39-.21-2.39-.21-5.69-.16-.58.01-.58.01-3.55.03-1.24.02-2.48.05-3.76.07l-7.31.09c-1.09.02-2.18.03-3.3.05-.79-.03-1.58-.05-2.39-.08v-1c1.96-.04 3.91-.01 5.87.04 1.21.02 2.43.05 3.68.07 2.59.05 5.18.12 7.76.19l3.69.06c1.12.02 2.25.05 3.41.08.43-.07.43-.07 2.59-.44.73-1.86.73-1.86 1-4 5.89-6.51 10.33-8.37 19-7"/>
<path fill="#0c57c5" d="M796 458c1.93 1.45 2.92 2.85 4 5 .72 6.45 1.2 12.29-2.81 17.69-2.58 2.97-4.8 5.17-8.86 5.59L786 487c-.45 2.5-.45 2.5-.25 5.56.1 1.81.19 3.63.25 5.44h-1c.08-.99.16-1.98.25-3-.04-.5-.04-.5-.25-3-1.67-.04-3.33-.04-5 0-.12-.8-.25-1.61-.38-2.44-.2-.84-.41-1.69-.62-2.56-2.33-.36-4.66-.69-7-1-2.75-2.31-2.75-2.31-5-5-.52-.62-1.05-1.23-1.59-1.87-2.47-3.73-2.54-7.74-2.41-12.13.68-3.03 1.55-5.22 3-8 .14.57.28 1.15.43 1.74.19.75.37 1.49.57 2.26 2.81 1 2.81 1 6 1 .6-.64 1.2-1.28 1.81-1.94 2.53-2.38 3.27-2.43 6.63-2.56 4.3.18 6.55 1.31 9.56 4.5 1.25 2.49.88 3.87.62 6.62-.05 2.41-.05 2.41.38 4.38 3.56 1.19 3.56 1.19 7 0 .56-3.47.02-6.66-1-10-.97-1.03-1.97-2.04-3-3 .12-2.38.12-2.38 1-4"/>
<path fill="#0c52bb" d="M469 384c1.28 1.36 1.28 1.36 2 4-1.01 2.62-2.07 4.83-3.43 7.27l-1.15 2.15a744 744 0 0 1-3.73 6.83c-.8 1.48-1.6 2.97-2.4 4.45-1.6 2.97-3.22 5.93-4.86 8.87-1.64 2.97-3.22 5.95-4.77 8.96l-2.28 4.32c-.16.33-.16.33-.99 2-3.37 6.3-8.73 8.7-15.39 10.77-3.64 1.21-6.97 2.78-10.38 4.57a91 91 0 0 1-9.97 4.49c-6.7 2.65-13.1 5.89-19.53 9.13-2.11 1.06-4.23 2.12-6.35 3.17-6.85 3.42-13.52 6.91-19.95 11.09-.6.31-1.2.61-1.82.93l-2-1c.97-2.27 2.02-4.34 3.21-6.5q.525-.99 1.08-2.01c1.16-2.17 2.34-4.33 3.52-6.49 1.59-2.92 3.18-5.85 4.76-8.77.39-.72.78-1.43 1.19-2.17 2.15-3.98 4.21-7.98 6.13-12.07.39-.81.78-1.63 1.19-2.46.68-1.45 1.34-2.9 1.97-4.37.9-1.86.9-1.86 2.95-4.16 3.8.92 3.8.92 7 3l-1 3c-1.94.56-1.94.56-4 1-2.87 2.87-2.71 5.85-3.24 9.79-.25.73-.5 1.46-.76 2.21-.67.17-1.34.34-2.04.51-.64.16-1.29.32-1.96.49-.5 2.14-.5 2.14-.56 4.81-.11 4.22-.93 5.86-3.44 9.19 1.81 2 1.81 2 4 3v-4c4.13-1.62 7.62-2 12-2v-2h3l1.94-1.94c2.22-2.22 3.07-2.52 6.06-3.06 2.66-.95 4.89-1.93 7.25-3.5 3.27-1.79 6.31-2.35 9.96-2.97.59-.18 1.18-.35 1.79-.53v-2c2.34-1.07 2.34-1.07 5.38-2.12.99-.36 1.99-.71 3.02-1.08 2.6-.8 2.6-.8 4.6-.8v-2h4l1-3h2l-.12-3.25c.12-3.75.12-3.75 1.93-5.87.72-.62 1.45-1.24 2.19-1.88 1.66-2.49 2.91-4.76 3.94-7.56 1.23-2.83 2.83-4.35 5.06-6.44l1-2h2c.11-2.36-.07-4.67-.22-7.03.07-.65.14-1.3.22-1.97h3c.88-2.19.88-2.19 1.56-5 .69-2.81.69-2.81 1.44-5h2z"/>
<path fill="#0c69e2" d="m802 625 3 1v3c.32-.08.32-.08 1.94-.5.68-.16 1.36-.33 2.06-.5 1 3 1 3 .17 5.25-1.52 2.99-3.04 5.97-4.61 8.94-.29.55-.29.55-1.75 3.34-5.95 11.13-12.77 21.65-20.04 31.95-1.17 1.67-2.32 3.35-3.43 5.05-.26.37-.26.37-1.56 2.28l-1.34 2.02c-.48.39-.95.77-1.44 1.17-2.89-1.01-5.24-2.46-7-5 1.12-2.73 2.64-5.02 4.4-7.37 10.58-14.44 19.75-29.75 27.1-46.1.88-1.87.88-1.87 2.5-4.53"/>
<path fill="#148afb" d="M742 610c.3.23.3.23 1.81 1.38 3.22 2.39 7.17 3.54 11.19 3.62l1-3c1.86 3.72 1.44 7.94 1 12-1.68 4.86-4.74 8.19-9 11-3.89 1.89-6.89 2.2-11.19 2.06-5.62-.16-5.62-.16-7.81.94v-4h4l-3-1c-.34-2.84-.46-5.41-.44-8.25l-.06-2.32c.01-3.98.21-5.97 2.4-9.41 3.35-3.22 5.51-3.39 10.1-3.02"/>
<path fill="#1044a5" d="M332.5 374.75c4.58 1.63 5.79 3.26 8.5 7.25l1 3c.52-.03.52-.03 3.12-.19.48.03.48.03 2.88.19.28 3.93-.96 5.95-3.12 9.19-3.73 4.07-7.96 5.57-13.38 6.25-4.47-.56-6.86-1.81-10.5-4.44l2-2c.75-2.5.75-2.5 1-5l-2-2h2c-.06-.87-.12-1.73-.19-2.63.19-3.33.39-4.23 2.25-6.81C329 375 329 375 332.5 374.75"/>
<path fill="#0547b1" d="m836.563 464.688 2.44.31c.96 2.88 1.12 4.68 1.13 7.67 0 .94 0 1.89.01 2.86-.01 1.02-.01 2.04-.01 3.09v9.84c-.01 3.4 0 6.79 0 10.19v6.47c0 1.01 0 2.03.01 3.07-.01.96-.01 1.91-.01 2.89 0 .41 0 .41-.01 2.52-.13 2.61-.31 4.91-1.12 7.4-4.58.04-4.58.04-7-2-1.1-3.79-.86-7.58-.76-11.5.01-1.14.01-2.29.02-3.47.02-2.43.05-4.86.1-7.29.07-3.72.1-7.45.12-11.17.02-2.36.05-4.71.08-7.07l.03-3.39c.01-.52.01-.52.07-3.14.02-.91.03-1.83.05-2.77.44-3.35 1.55-4.11 4.85-4.51"/>
<path fill="#0f51b9" d="M313 474c3.05 2.56 4.74 4.21 6 8 2.5 1.12 2.5 1.12 5 1 .75-3.44.75-3.44 1-7h1c.68 5.34.95 10.43-2.19 15-2.82 3.59-6.17 5.71-10.68 6.5-5.34.11-9.15.16-13.38-3.38-1.64-1.61-1.64-1.61-2.75-3.12v-2h3l2 2 3-2c-.29-.72-.58-1.44-.88-2.19-1.48-3.71-1.11-5.97-.12-9.81 2.7-2.99 5.05-3.77 9-3"/>
<path fill="#0b3b9b" d="M338 416c4.59 2.26 8.15 5.14 10 10 .54 4.91.9 10.8-2 15-2.12-.06-2.12-.06-4-1v-2l-2-1c-.32-2.55-.38-5.08-.46-7.65-.54-2.35-.54-2.35-2.35-3.68-3.32-1.02-5.86-.47-9.19.33-2 3-2 3-2.94 6.25-.35.91-.7 1.81-1.06 2.75l-3-1c-.26-1.96-.26-1.96-.12-4.38.14-3.03.1-4.67-.88-7.62 5.47-6.21 9.89-7.17 18-6"/>
<path fill="#f1f2f8" d="M655 272c3.54 1.65 4.81 2.72 7 6 .53 3.45.59 5.88-1.06 9.01-2.01 2.68-3.66 4.62-6.94 5.57-3.63.19-5.87-.5-8.94-2.39-2.68-2.85-3.01-4.7-3.37-8.57.36-4.21 1.36-5.67 4.31-8.62 3.06-1.53 5.62-1.23 9-1"/>
<path fill="#f1f5fa" d="M783.844 459.531c3.17.69 4.96 2.14 7.16 4.47 1.43 2.86 1.3 4.81 1 8-1.77 3.06-3.51 5.5-6 8-6.61.99-6.61.99-9.86-1.32-2.84-3.02-4.04-5.14-4.83-9.24 1.48-7.42 5.21-10.4 12.53-9.91"/>
<path fill="#1758c1" d="M833 443h1c.25 2.88.25 2.88 0 6l-3 2c-.54 8.4-.54 8.4 1 12l1-3h4c.57-1.75.57-1.75.69-4 .08-1.33.18-2.67.31-4h1c.31 2.77.31 2.77.44 6.38.06 1.18.12 2.36.18 3.58-.2 1-.41 2.01-.62 3.04-.99.16-1.97.31-2.99.47-.99.51-1.99 1.01-3.01 1.53-1 3.79-.84 7.6-.8 11.5 0 .57 0 .57-.01 3.47q-.015 3.645.03 7.29c.03 3.73 0 7.45-.04 11.18 0 2.35.01 4.71.02 7.06l-.03 3.4c.05 2.83.1 5.36.83 8.1 3.01 1.49 3.01 1.49 6 2 .62 3.62.62 3.62 0 7h-4c-.03 2.02-.05 4.03.05 6.05-.05 1.95-.05 1.95-1.49 3.51-.51.48-1.03.95-1.56 1.44-.36 2.33-.69 4.66-1 7h-2c-.34 2.19-.34 2.19-.5 5s-.16 2.81-.5 5h-2c-.16.33-.16.33-1 2 .63-6.94 1.73-13.77 2.89-20.63 1.72-10.45 2.26-20.87 2.24-31.45 0-1.1 0-2.2.01-3.33 0-2.3-.01-4.6-.01-6.9-.01-3.51 0-7.02.01-10.53 0-2.25-.01-4.5-.01-6.74 0-1.04.01-2.09.01-3.16-.02-5.2-.27-10.13-1.14-15.26-.13-2.1-.22-4.21-.25-6.31-.03-1.03-.05-2.06-.08-3.12.11-.85.22-1.69.33-2.57l3-2z"/>
<path fill="#0c5bc9" d="m470 634 3 1c-.23 5.17-1.75 10.06-3.12 15.03-4.61 16.77-6.14 32.1-5.81 49.42.02 1.23.04 2.46.05 3.73.03 1.12.05 2.24.08 3.4-.07.8-.13 1.6-.2 2.42h-2c-.17.33-.17.33-1 2l-3-2c1.38-2.06 1.38-2.06 3-4l-1-1c-.11-2.06-.16-4.12-.18-6.19-.02-1.25-.04-2.51-.07-3.8-.03-2.01-.06-4.02-.08-6.03a280 280 0 0 0-.1-5.79c-.01-1.16-.02-2.33-.04-3.52-.17-.88-.35-1.76-.53-2.67-2.09-.8-2.09-.8-4-1 .85-1.38.85-1.38 2.62-3.12 4.96-5.38 5.56-11.09 6.04-18.16.05-.28.05-.28.34-1.72h2c.09-2.23.09-2.23-.06-5.19-.1-4.52.13-7.17 3.06-10.81z"/>
<path fill="#eff7fd" d="M742 610c3.38 2.06 3.38 2.06 6 5 .65 4.03.38 6.2-1.38 9.88C745 627 745 627 743 628c-3.01.35-5.09.58-8 0-3.29-2.88-4.77-4.74-5.56-9.06.69-3.62 2.02-5.32 4.56-7.94 2.9-1.45 4.77-1.37 8-1"/>
<path fill="#35549c" d="M726.688 389.688c1.02 0 2.05-.01 3.1-.01 2.89-.01 5.77 0 8.66.02h2.67c1.97.02 3.93.15 5.88.3l-1 2c-2.98.17-5.88.21-8.86.16-.9 0-1.81-.01-2.74-.01-2.9-.02-5.81-.05-8.71-.08-3.79-.04-7.58-.07-11.36-.09-.46-.01-.46-.01-2.77-.02-5.78-.02-11.46.24-17.21.83-4.12.37-8.22.08-12.34-.14-.33.06-.33.06-2.01.35.43 1.89.43 1.89 2 4 .83.4 1.66.79 2.52 1.2l1.48.8c-2.45.52-2.45.52-6.25.81-1.24.11-2.48.22-3.76.34-.99-.05-1.97-.1-2.99-.15v-3c-2.15-.36-2.15-.36-4.93-.31-.92 0-1.84.01-2.78.01-.76.1-1.51.2-2.29.3l-1 2v-2c-2.3-.11-2.3-.11-5.31.13-.99.06-1.97.13-2.99.19-2.7.68-2.7.68-4.23 2.77-.49.63-.97 1.26-1.47 1.91-2.44.06-2.44.06-5.12-.56-.89-.19-1.78-.37-2.7-.57-.72-.28-1.44-.57-2.18-.87l-1-3c2.2-.66 2.2-.66 5.49-1.06 1.23-.16 2.45-.31 3.71-.47 1.37-.16 2.74-.31 4.11-.47 1.42-.17 2.84-.33 4.26-.5 3.74-.44 7.48-.85 11.23-1.26 2.09-.23 4.19-.47 6.29-.71 18.21-2.07 36.27-2.81 54.6-2.84"/>
<path fill="#164bac" d="M355 776c5.23-.52 8.54.27 13 3l3 3c4.21 2.3 8.59 4.12 13 6l2 1.06c2 .94 2 .94 5.75 1.94 1.07.33 2.14.66 3.25 1v2l2.19-.06c3.45.07 4.97 1.16 7.81 3.06.76.35 1.53.7 2.31 1.06.56.31 1.12.62 1.69.94v2h3c.17.5.17.5 1 3-3.12-.84-5.99-1.84-9-3-1.13-.43-2.25-.86-3.41-1.3-12.7-4.96-24.92-10.76-37.03-17.01-.85-.44-1.69-.87-2.57-1.31-.39-.21-.39-.21-2.36-1.24-.7-.37-1.4-.73-2.12-1.11-.5-.34-1-.68-1.51-1.03z"/>
<path fill="#0950c0" d="m296 549 2 1v3c-.78.31-1.57.62-2.38.94-2.62 1.06-2.62 1.06-3.87 2.94-.75 2.12-.75 2.12-1 4.24-.25.62-.5 1.24-.75 1.88-2 .67-4 1.33-6 2-.75 2-.75 2-1 4l-2 2 3 2c-2 .35-4 .69-6 1v2l2 1h-3v-2c-2.31-.19-2.31-.19-5 1-1.08 2.32-1.76 4.6-2.42 7.07-.19.63-.38 1.27-.58 1.93h-1c-.17.83-.33 1.65-.5 2.5-.17.83-.33 1.65-.5 2.5h-1c-1.24-4.6-1.19-8.39 0-13 3.99-5.85 9.67-10.41 15-15 .84-.76 1.67-1.51 2.53-2.29 1.79-1.61 3.62-3.16 5.47-4.71.65-.59 1.29-1.17 1.96-1.78.63-.57 1.26-1.13 1.92-1.72.55-.51 1.1-1.01 1.67-1.53.48-.32.96-.64 1.45-.97"/>
<path fill="#164eb0" d="M333 764c33.47-2.24 33.47-2.24 45 3-1.79 1.84-3.71 2.86-6 4v-2c-1.97-.12-1.97-.12-4.5 0s-2.53.12-4.5 0v-2c-2.94-.88-2.94-.88-6-1-.62 1.88-.62 1.88-1 4-1.33.33-2.67.67-4 1-.07.36-.07.36-.44 2.19-.18.6-.37 1.19-.56 1.81-4.31-1.29-8.02-3.7-11.81-6.06-.6-.37-1.2-.73-1.81-1.11-1.48-.91-2.93-1.87-4.38-2.83z"/>
<path fill="#eff2f8" d="M332.5 375c3.79 1.08 5.3 1.75 7.5 5 .56 2.94.56 2.94 0 6-2.49 3.36-3.91 4.8-8.06 5.56-2.94-.56-2.94-.56-5.32-2.06-2.28-3.51-2.43-6.42-1.62-10.5 2.22-3.64 3.22-4 7.5-4"/>
<path fill="#eaeff8" d="M313 474c2.95 2.3 4.71 3.83 5.62 7.5-.92 3.71-2.61 5.21-5.62 7.5-3.06.62-3.06.62-6 0-2.44-2.06-2.44-2.06-4-5 0-3.85.13-6.04 2.75-8.94 2.8-1.32 4.2-1.66 7.25-1.06"/>
<path fill="#edf1f8" d="M335 424c2.88 2.06 2.88 2.06 5 5 .07 3.85-.13 6-2.69 8.94-3.08 1.41-4.96 1.62-8.31 1.06-2.44-2.06-2.44-2.06-4-5 0-3.85.13-6.04 2.75-8.94 2.8-1.32 4.2-1.66 7.25-1.06"/>
<path fill="#1248ab" d="M258 742c1.34.29 2.68.63 4 1 .35.05.35.05 2.12.31 1.88.69 1.88.69 3 2.75L268 748h2v2h4c.34 1.67.67 3.33 1 5 1.81.56 1.81.56 4 1 2.15 1.9 3.72 3.43 5 6h2v2h3c1.81 2.38 1.81 2.38 3 5l-2 2c-1.96-1.17-1.96-1.17-4.38-3.19-.89-.75-1.78-1.49-2.71-2.26-4.03-3.53-8-7.14-11.93-10.79-3.68-3.42-7.45-6.75-11.21-10.08-.59-.55-1.17-1.11-1.77-1.68z"/>
<path fill="#154aab" d="M194 613c1.82 2.73 3.11 5.28 4.46 8.26.24.52.24.52 1.43 3.14.49 1.09.98 2.17 1.49 3.29.96 2.13 1.93 4.26 2.89 6.38.46 1.02.92 2.03 1.4 3.08 1.18 2.52 2.44 4.97 3.74 7.43C211 648 211 648 210 651h-2c-1.22-2.08-1.22-2.08-2.5-4.81-1.38-2.91-2.71-5.5-4.5-8.19v-3h-2c-.33-2.33-.67-4.67-1-7h-2c-3.25-3.25-3.86-7.38-4.25-11.88.08-.7.16-1.4.25-2.12z"/>
<path fill="#144baa" d="M407 829h3v2h7v2c.69-.15 1.37-.3 2.08-.46 3.6-.67 6.07-.04 9.61.84 1.14.27 2.27.55 3.45.83C435 835 435 835 437 836l1-2h2v2l3 1v2h3v2l3 1c-6.18-.57-12.1-1.84-18.12-3.31-.92-.22-1.83-.45-2.77-.68-2.71-.66-5.41-1.33-8.11-2.01-.78-.19-1.55-.38-2.35-.58-2.01-.5-4.02-1.02-6.03-1.54-1.12-.3-2.24-.59-3.39-.89-.74-.33-1.47-.65-2.23-.99z"/>
<path fill="#e3e8f4" d="M221 440h4c-.18 4.22-3.04 7.29-5.76 10.28-4.18 3.2-8.6 2.92-13.68 2.78l-3.08.12c-2.81-.02-4.91-.04-7.48-1.18-1.13-3.11-.84-5.84 0-9l2-2c.03 1.1.07 2.2.11 3.34.29 1.21.59 2.42.89 3.66 3.13.64 5.2.76 8.31.56.78-.01 1.55-.03 2.34-.04 7.38-.25 7.38-.25 10.35-2.52l1-3.12z"/>
<path fill="#4070c3" d="M262 505c3.31 2.05 4.76 3.27 6 7-2.75 2.75-2.75 2.75-6 5l-3-1c.06-1 .13-1.99.2-3.02-.07-.98-.13-1.97-.2-2.98-2.54-.71-2.54-.71-6.15-.67-.33.01-.33.01-1.98.01-2.18.01-4.35.06-6.53.11l-4.5.03c-3.97.03-7.93.09-11.9.17-4.82.08-9.65.12-14.47.17-3.75.03-7.5.08-11.25.14-.35 0-.35 0-2.09.03l-5.59.09c-.84-.03-1.68-.05-2.54-.08v-1c2.03-.11 4.07-.15 6.1-.16.65 0 1.3-.01 1.97-.01l4.25-.03c2.24-.01 4.48-.03 6.72-.05 6.37-.06 12.74-.12 19.11-.15 3.89-.02 7.78-.06 11.67-.1 1.48-.02 2.97-.03 4.45-.03 2.08 0 4.16-.03 6.24-.05l3.59-.03c3.24-.44 3.78-1.08 5.9-3.39"/>
<path fill="#384f94" d="M515.063 128.75h3.13c2.95.01 5.89.03 8.84.05.91 0 1.81.01 2.75.01 2.07.02 4.14.1 6.22.19v1c-2.49.15-4.95.24-7.44.28l-2.29.06c-3.25.08-6.5.14-9.75.21-2.36.05-4.72.11-7.08.17-.38.01-.38.01-2.26.04-1.73.04-3.46.14-5.18.24v1c-2.02.26-4.03.52-6.06.72-1.94.28-1.94.28-3.94 1.28-1.96 0-3.91 0-5.87-.04-2.13.04-2.13.04-5.45.67-5.06.51-9.77-.33-14.68-1.63v-1c16.25-3.15 32.57-3.28 49.06-3.25"/>
<path fill="#3266bf" d="M732.938 701.75h3c2.82.01 5.64.03 8.46.05.87 0 1.74.01 2.63.01 1.99.02 3.98.1 5.97.19v1c-2.41.15-4.8.24-7.22.28l-2.22.06c-3.15.08-6.3.14-9.46.21-2.29.05-4.59.11-6.88.17-.72.01-1.44.03-2.19.04-1.67.04-3.35.14-5.03.24v1c-1.33.02-2.66-.01-4-.06-4.85-.05-9.56.35-14.37.93l-2.09.24c-2.78.36-5.16.7-7.67 1.98-2.61 1.27-4.51.92-7.37.6-.94-.1-1.87-.2-2.84-.3-4.79-.7-4.79-.7-6.66-1.39 3.18-.96 6.58-1.21 9.86-1.68 2.2-.33 4.38-.72 6.56-1.12 13.84-2.32 27.53-2.47 41.52-2.45"/>
<path fill="#1248a9" d="M323 793c6.59-1.2 10.66 1.82 16.13 5.27C342 800 342 800 344.87 801.1c.7.3 1.4.59 2.13.9v2c2.09.67 4.07 1.01 6.25 1.25.58.25 1.15.5 1.75.75.56 2.69.56 2.69 0 5-5.42-1.7-10.42-4.74-15.44-7.38-.93-.48-1.86-.96-2.81-1.46-4.76-2.49-9.41-4.98-13.75-8.16z"/>
<path fill="#4776c7" d="M833 443h1c.25 2.88.25 2.88 0 6-.5.33-.5.33-3 2-.54 8.4-.54 8.4 1 12l1-3h4c.57-1.75.57-1.75.69-4 .08-1.33.18-2.67.31-4h1c.31 2.77.31 2.77.44 6.38.06 1.18.12 2.36.18 3.58-.2 1-.41 2.01-.62 3.04-.99.2-1.97.4-2.99.6-.99.46-1.99.93-3.01 1.4-.97 3.08-.81 6.18-.77 9.38l-.03 2.82c-.03 2.98-.02 5.95-.01 8.92l-.06 8.95c-.02 1.86-.02 3.72-.02 5.58 0 2.12-.05 4.23-.11 6.35h-1c-.15-2.99-.24-5.95-.28-8.94l-.06-2.78c-.06-2.94-.11-5.89-.16-8.84-.05-2.93-.1-5.85-.16-8.77-.04-1.83-.07-3.65-.1-5.47-.1-4.82-.48-9.43-1.24-14.2-.13-2.1-.22-4.21-.25-6.31-.03-1.03-.05-2.06-.08-3.12.11-.85.22-1.69.33-2.57l3-2z"/>
<path fill="#154eb3" d="M408 390c.75 1.81.75 1.81 1 4h-2c.21.87.41 1.73.62 2.62.5 4.45-.99 5.9-3.62 9.38l-1 3h-2c-.12 1.07-.25 2.14-.38 3.25-.7 4.21-1.52 5.03-4.62 7.75-.37.74-.74 1.49-1.12 2.25-.15.29-.15.29-.88 1.75h-2l-1 3h-2c1.31-4.12 3.43-7.9 5.41-11.73.32-.63.65-1.26.98-1.9.69-1.33 1.37-2.65 2.06-3.97 1.05-2.02 2.09-4.05 3.14-6.07.67-1.29 1.34-2.58 2-3.87.31-.58.31-.58 1.84-3.54C406 393 406 393 408 390"/>
<path fill="#dfe8f4" d="M616 386c-1.62 1.38-1.62 1.38-4 3l-1 2c-2.03.38-2.03.38-4.5.56-4.4.34-4.4.34-5.5 1.44-1.64.21-3.29.37-4.94.5-4.84.39-4.84.39-7.06 1.5-3.62.19-3.62.19-7 0v-2c-1.33-.34-2.66-.68-4-1 2.98-.76 5.92-1.37 8.94-1.94.46-.09.46-.09 2.81-.54 20.51-3.89 20.51-3.89 26.25-3.52"/>
<path fill="#cbd3e6" d="M697 397c-3.05 1.91-6.25 2.65-9.73 3.44-.55.13-.55.13-3.38.77l-3.51.79-3.45.79c-2.25.51-4.5 1.01-6.75 1.51-2.04.45-4.07.91-6.1 1.4-.88.2-1.76.41-2.67.61-.76.18-1.52.37-2.3.55-2.63.17-3.84-.59-6.11-1.86-.81-.19-1.63-.38-2.47-.57-.5-.14-1.01-.28-1.53-.43 3-.74 5.96-1.33 9-1.88.96-.17 1.92-.35 2.9-.53 6.65-1.2 13.3-2.31 19.98-3.34.81-.13 1.62-.25 2.46-.39 4.58-.68 9.03-1.21 13.66-.86"/>
<path fill="#1a50af" d="m464 840 2 2c2.01 0 4.03 0 6.04-.06 2.42.07 3.9.81 5.96 2.06.72.12 1.44.25 2.19.38.6.2 1.19.41 1.81.62.9 2.08.9 2.08 1 4-1.87.02-1.87.02-4.66-.62-1.01-.22-2.03-.44-3.07-.67-1.08-.23-2.16-.47-3.27-.71-2.08-.35-4.16-.68-6.25-1-1.02-.16-2.04-.33-3.09-.5-2.12-.34-4.25-.68-6.37-1-1-.16-2-.33-3.04-.5-.91-.14-1.83-.29-2.77-.44-.49-.18-.98-.37-1.48-.56 4.86-3.14 9.42-3.27 15-3"/>
<path fill="#0d47ab" d="M457 819c3.16.1 6.07.82 9 2 .52.8 1.03 1.61 1.56 2.44-.18.84-.37 1.69-.56 2.56-2.54 1.44-5.21 2.19-8 3-.33.16-.33.16-2 1-.7-.45-1.4-.91-2.12-1.38-3.71-2.09-6.66-2.19-10.88-2.62v-1c.89-.14 1.77-.29 2.69-.44.76-.18 1.52-.37 2.31-.56l-3-2c1.54.02 1.54.02 4.06.38 3.07.41 5.82.62 8.94.62l-3-2z"/>
<path fill="#164cab" d="m377 816 2 3c1.99.41 1.99.41 4.31.5 4.02.31 6.34 1.17 9.69 3.5.93.35 1.86.7 2.81 1.06.72.31 1.45.62 2.19.94v2c.29.28.29.28 1.77 1.7.41.43.81.86 1.23 1.3-6.12-.98-12.27-3.7-18-6-1.23-.48-2.45-.96-3.71-1.45-1.33-.54-2.65-1.07-3.98-1.61-.66-.26-1.32-.52-2-.78-1.82-.76-1.82-.76-4.31-2.16 3.21-2.14 4.28-2.48 8-2"/>
</g>
</svg>
